<?xml version="1.0" encoding="UTF-8"?>
<!DOCTYPE svg PUBLIC "-//W3C//DTD SVG 1.1//EN" "http://www.w3.org/Graphics/SVG/1.1/DTD/svg11.dtd">
<svg xmlns="http://www.w3.org/2000/svg" version="1.1" width="512px" height="512px" style="shape-rendering:geometricPrecision; text-rendering:geometricPrecision; image-rendering:optimizeQuality; fill-rule:evenodd; clip-rule:evenodd" xmlns:xlink="http://www.w3.org/1999/xlink">
<g><path style="opacity:0.964" fill="#000000" d="M 233.5,-0.5 C 248.167,-0.5 262.833,-0.5 277.5,-0.5C 377.805,11.9821 449.305,63.9821 492,155.5C 502.297,180.687 508.797,206.687 511.5,233.5C 511.5,248.167 511.5,262.833 511.5,277.5C 499.018,377.805 447.018,449.305 355.5,492C 330.313,502.297 304.313,508.797 277.5,511.5C 262.833,511.5 248.167,511.5 233.5,511.5C 133.195,499.018 61.6947,447.018 19,355.5C 8.70332,330.313 2.20332,304.313 -0.5,277.5C -0.5,262.833 -0.5,248.167 -0.5,233.5C 11.9821,133.195 63.9821,61.6947 155.5,19C 180.687,8.70332 206.687,2.20332 233.5,-0.5 Z M 234.5,32.5 C 315.729,27.8796 381.896,56.8796 433,119.5C 476.883,179.779 489.216,246.112 470,318.5C 450.323,380.175 411.823,426.008 354.5,456C 302.269,480.722 248.269,485.389 192.5,470C 130.825,450.323 84.9919,411.823 55,354.5C 30.2781,302.269 25.6115,248.269 41,192.5C 60.6774,130.825 99.1774,84.9919 156.5,55C 181.359,43.1227 207.359,35.6227 234.5,32.5 Z"/></g>
<g><path style="opacity:0.958" fill="#000000" d="M 218.5,115.5 C 261.799,158.299 304.965,201.299 348,244.5C 352.241,251.268 352.575,258.268 349,265.5C 305.667,308.833 262.333,352.167 219,395.5C 211.167,387.667 203.333,379.833 195.5,372C 234.347,333.32 273.014,294.486 311.5,255.5C 273.014,216.514 234.347,177.68 195.5,139C 203.369,131.298 211.036,123.465 218.5,115.5 Z"/></g>
</svg>
