<?xml version="1.0" standalone="no"?>
<!DOCTYPE svg PUBLIC "-//W3C//DTD SVG 20010904//EN"
 "http://www.w3.org/TR/2001/REC-SVG-20010904/DTD/svg10.dtd">
<svg version="1.0" xmlns="http://www.w3.org/2000/svg"
 width="512.000000pt" height="512.000000pt" viewBox="0 0 512.000000 512.000000"
 preserveAspectRatio="xMidYMid meet">
<metadata>
Created by potrace 1.16, written by Peter Selinger 2001-2019
</metadata>
<g transform="translate(0.000000,512.000000) scale(0.100000,-0.100000)"
fill="#000000" stroke="none">
<path d="M1530 4460 c-445 -95 -777 -429 -871 -875 -18 -84 -19 -147 -19
-1025 0 -878 1 -941 19 -1025 65 -309 243 -566 508 -731 82 -51 205 -104 320
-137 78 -22 81 -22 1040 -25 917 -2 967 -2 1055 17 450 93 785 427 879 876 18
84 19 147 19 1025 0 878 -1 941 -19 1025 -93 446 -432 785 -871 875 -94 19
-136 20 -1037 19 -869 0 -944 -2 -1023 -19z m2005 -324 c39 -10 115 -39 170
-66 172 -83 281 -193 365 -365 88 -182 85 -137 85 -1145 0 -997 2 -960 -76
-1130 -81 -174 -201 -296 -374 -380 -182 -88 -137 -85 -1145 -85 -1008 0 -963
-3 -1145 85 -172 84 -281 193 -365 365 -88 182 -85 137 -85 1145 0 1008 -3
963 85 1145 84 172 193 281 365 365 96 47 198 75 295 83 25 2 430 3 900 2 778
-1 861 -3 925 -19z"/>
<path d="M2472 3420 c-18 -11 -41 -34 -52 -52 -19 -32 -20 -52 -20 -583 l0
-550 -232 232 c-128 128 -246 237 -261 243 -102 37 -211 -21 -224 -120 -13
-96 -23 -83 390 -498 210 -211 394 -390 409 -398 32 -17 120 -19 151 -3 31 16
775 758 793 791 19 36 18 112 -2 154 -31 65 -104 95 -191 79 -33 -6 -71 -39
-275 -243 l-238 -236 0 549 c0 531 -1 551 -20 583 -30 48 -75 72 -140 72 -37
0 -66 -6 -88 -20z"/>
</g>
</svg>
