<?xml version="1.0" encoding="UTF-8"?>
<!DOCTYPE svg PUBLIC "-//W3C//DTD SVG 1.1//EN" "http://www.w3.org/Graphics/SVG/1.1/DTD/svg11.dtd">
<svg xmlns="http://www.w3.org/2000/svg" version="1.1" width="228px" height="194px" style="shape-rendering:geometricPrecision; text-rendering:geometricPrecision; image-rendering:optimizeQuality; fill-rule:evenodd; clip-rule:evenodd" xmlns:xlink="http://www.w3.org/1999/xlink">
<g><path style="opacity:1" fill="#fdfdfc" d="M -0.5,-0.5 C 75.5,-0.5 151.5,-0.5 227.5,-0.5C 227.5,63.5 227.5,127.5 227.5,191.5C 226.5,191.833 225.833,192.5 225.5,193.5C 150.167,193.5 74.8333,193.5 -0.5,193.5C -0.5,154.5 -0.5,115.5 -0.5,76.5C 0.166667,76.5 0.833333,76.5 1.5,76.5C 1.83333,76.5 2.16667,76.5 2.5,76.5C 2.80393,77.1499 3.13727,77.8165 3.5,78.5C 7.82879,79.3602 11.9955,79.6936 16,79.5C 18.2585,74.4386 19.0919,69.1052 18.5,63.5C 23.0323,63.8182 27.3656,63.4849 31.5,62.5C 33.126,62.9383 34.7927,63.2716 36.5,63.5C 39.0667,62.2831 41.4,60.6165 43.5,58.5C 45.8386,59.4177 47.3386,61.0844 48,63.5C 49.0292,58.122 49.1958,52.7887 48.5,47.5C 49.4881,42.3595 49.8214,37.0262 49.5,31.5C 48.8333,31.5 48.1667,31.5 47.5,31.5C 44.4633,27.4628 40.7966,24.1295 36.5,21.5C 35.2196,20.0687 33.5529,19.4021 31.5,19.5C 31.5,19.1667 31.5,18.8333 31.5,18.5C 31.5,18.1667 31.5,17.8333 31.5,17.5C 20.9614,16.2026 10.2948,16.2026 -0.5,17.5C -0.5,11.5 -0.5,5.5 -0.5,-0.5 Z"/></g>
<g><path style="opacity:1" fill="#f9f9ee" d="M 111.5,15.5 C 112.588,18.5558 112.588,21.5558 111.5,24.5C 107.478,23.1232 106.478,20.4565 108.5,16.5C 109.009,15.7411 108.343,15.4077 106.5,15.5C 104.886,15.8029 103.552,16.4695 102.5,17.5C 101.883,17.6107 101.383,17.944 101,18.5C 99.9609,17.2899 98.7942,16.2899 97.5,15.5C 96.5,15.5 95.5,15.5 94.5,15.5C 92.9729,16.9314 91.3062,18.2648 89.5,19.5C 89.4606,18.4168 89.1272,17.4168 88.5,16.5C 86.2573,15.5258 83.924,15.1924 81.5,15.5C 80.2223,15.7822 79.2223,16.4489 78.5,17.5C 76.1998,15.7982 73.5331,15.1315 70.5,15.5C 69.5,15.5 68.5,15.5 67.5,15.5C 66.8333,15.5 66.1667,15.5 65.5,15.5C 64.1667,15.5 62.8333,15.5 61.5,15.5C 59.9519,15.8212 59.2852,16.8212 59.5,18.5C 58.7757,22.3653 58.1091,26.3653 57.5,30.5C 58.5628,32.366 57.8961,32.866 55.5,32C 53.7098,28.4172 53.0431,24.5839 53.5,20.5C 53.2865,18.8561 53.6198,17.3561 54.5,16C 53.552,15.5172 52.552,15.3505 51.5,15.5C 50.8333,15.5 50.1667,15.5 49.5,15.5C 50.0899,14.234 50.5899,12.9007 51,11.5C 51.414,11.9574 51.914,12.2907 52.5,12.5C 55.4488,9.2245 58.6154,8.89117 62,11.5C 65.2135,7.58656 68.3802,7.58656 71.5,11.5C 72.3857,10.675 72.719,9.67504 72.5,8.5C 75.3938,8.04229 77.8938,8.70896 80,10.5C 80.3879,9.57203 81.0546,8.90536 82,8.5C 90.4539,9.6517 98.9539,9.6517 107.5,8.5C 110.987,9.5217 112.32,11.855 111.5,15.5 Z"/></g>
<g><path style="opacity:1" fill="#fdfce4" d="M 31.5,17.5 C 22.4938,17.3336 13.4938,17.5002 4.5,18C 3.66667,18.8333 2.83333,19.6667 2,20.5C 1.50005,39.1637 1.33339,57.8304 1.5,76.5C 0.833333,76.5 0.166667,76.5 -0.5,76.5C -0.5,56.8333 -0.5,37.1667 -0.5,17.5C 10.2948,16.2026 20.9614,16.2026 31.5,17.5 Z"/></g>
<g><path style="opacity:1" fill="#d6d2ab" d="M 108.5,16.5 C 104.775,16.7796 103.608,18.7796 105,22.5C 106.255,23.2106 107.421,24.044 108.5,25C 103.178,25.4933 101.178,22.9933 102.5,17.5C 103.552,16.4695 104.886,15.8029 106.5,15.5C 108.343,15.4077 109.009,15.7411 108.5,16.5 Z"/></g>
<g><path style="opacity:1" fill="#f9fef0" d="M 175.5,34.5 C 171.833,34.5 168.167,34.5 164.5,34.5C 164.5,33.5 164.5,32.5 164.5,31.5C 166.194,33.4376 168.194,33.7709 170.5,32.5C 168.933,30.1039 168.1,27.4372 168,24.5C 165.519,22.6863 162.685,22.0196 159.5,22.5C 159.5,21.1667 159.5,19.8333 159.5,18.5C 168.605,17.602 172.938,21.9354 172.5,31.5C 175.247,31.1866 177.914,31.52 180.5,32.5C 178.709,33.1698 177.042,33.8365 175.5,34.5 Z"/></g>
<g><path style="opacity:1" fill="#d8d1aa" d="M 81.5,15.5 C 83.924,15.1924 86.2573,15.5258 88.5,16.5C 89.1272,17.4168 89.4606,18.4168 89.5,19.5C 89.1667,21.5 88.8333,23.5 88.5,25.5C 86.1667,25.5 83.8333,25.5 81.5,25.5C 81.5,22.1667 81.5,18.8333 81.5,15.5 Z"/></g>
<g><path style="opacity:1" fill="#fcf8c9" d="M 83.5,16.5 C 87.8413,16.5186 89.1747,18.5186 87.5,22.5C 86.3112,23.4287 84.9778,23.762 83.5,23.5C 83.5,21.1667 83.5,18.8333 83.5,16.5 Z"/></g>
<g><path style="opacity:1" fill="#ece7b8" d="M 111.5,15.5 C 112.5,15.5 113.5,15.5 114.5,15.5C 114.5,16.5 114.5,17.5 114.5,18.5C 116.346,18.7778 117.68,18.1112 118.5,16.5C 124.463,15.5041 130.463,15.1707 136.5,15.5C 136.784,18.7766 136.451,21.9433 135.5,25C 132.132,25.5428 128.799,25.3761 125.5,24.5C 122.332,25.8681 119.332,25.5347 116.5,23.5C 114.964,24.2485 113.631,25.2485 112.5,26.5C 111.702,26.0431 111.369,25.3764 111.5,24.5C 112.588,21.5558 112.588,18.5558 111.5,15.5 Z"/></g>
<g><path style="opacity:1" fill="#fbf8dd" d="M 94.5,15.5 C 93.1737,18.6818 92.6737,22.0152 93,25.5C 93.5635,21.0858 95.3968,20.4191 98.5,23.5C 98.8333,23.1667 99.1667,22.8333 99.5,22.5C 98.4229,20.2706 97.7563,17.9372 97.5,15.5C 98.7942,16.2899 99.9609,17.2899 101,18.5C 101.383,17.944 101.883,17.6107 102.5,17.5C 101.178,22.9933 103.178,25.4933 108.5,25C 107.421,24.044 106.255,23.2106 105,22.5C 103.608,18.7796 104.775,16.7796 108.5,16.5C 106.478,20.4565 107.478,23.1232 111.5,24.5C 111.369,25.3764 111.702,26.0431 112.5,26.5C 113.631,25.2485 114.964,24.2485 116.5,23.5C 119.332,25.5347 122.332,25.8681 125.5,24.5C 125.5,25.8333 125.5,27.1667 125.5,28.5C 123.396,28.7989 121.396,28.4656 119.5,27.5C 119.113,26.2801 118.28,25.6135 117,25.5C 115.521,26.756 113.855,27.756 112,28.5C 106.892,27.9873 101.892,26.9873 97,25.5C 96,26.1667 95,26.8333 94,27.5C 92.1997,26.6805 90.3664,26.0138 88.5,25.5C 88.8333,23.5 89.1667,21.5 89.5,19.5C 91.3062,18.2648 92.9729,16.9314 94.5,15.5 Z"/></g>
<g><path style="opacity:1" fill="#d8d297" d="M 94.5,15.5 C 95.5,15.5 96.5,15.5 97.5,15.5C 97.7563,17.9372 98.4229,20.2706 99.5,22.5C 99.1667,22.8333 98.8333,23.1667 98.5,23.5C 95.3968,20.4191 93.5635,21.0858 93,25.5C 92.6737,22.0152 93.1737,18.6818 94.5,15.5 Z"/></g>
<g><path style="opacity:1" fill="#faf8df" d="M 49.5,15.5 C 50.1667,15.5 50.8333,15.5 51.5,15.5C 51.3359,18.1873 51.5026,20.854 52,23.5C 52.2321,22.2625 52.7321,21.2625 53.5,20.5C 53.0431,24.5839 53.7098,28.4172 55.5,32C 57.8961,32.866 58.5628,32.366 57.5,30.5C 58.1091,26.3653 58.7757,22.3653 59.5,18.5C 59.5,20.5 59.5,22.5 59.5,24.5C 62.0115,24.838 64.3448,24.838 66.5,24.5C 67.4066,21.5788 67.7399,18.5788 67.5,15.5C 68.5,15.5 69.5,15.5 70.5,15.5C 70.1253,18.3965 70.6253,21.0632 72,23.5C 72.3333,22.1667 72.6667,20.8333 73,19.5C 77.2513,26.6597 79.0846,25.993 78.5,17.5C 79.2223,16.4489 80.2223,15.7822 81.5,15.5C 81.5,18.8333 81.5,22.1667 81.5,25.5C 80.1779,25.33 79.0113,25.6634 78,26.5C 77.7978,28.2556 77.2978,29.9223 76.5,31.5C 75.9882,29.1493 74.9882,27.1493 73.5,25.5C 72.3192,27.1353 72.3192,28.802 73.5,30.5C 72.675,31.3857 71.675,31.719 70.5,31.5C 70.8747,28.6035 70.3747,25.9368 69,23.5C 68.2985,26.3272 67.2985,28.9938 66,31.5C 65.5495,28.8941 64.0495,27.5608 61.5,27.5C 61.5,29.5 61.5,31.5 61.5,33.5C 62.791,33.2627 63.791,33.596 64.5,34.5C 61.9407,34.1984 59.6074,34.5318 57.5,35.5C 56.5,35.5 55.5,35.5 54.5,35.5C 53.8333,35.8333 53.1667,36.1667 52.5,36.5C 53.038,34.8828 53.3713,33.2161 53.5,31.5C 52.1667,31.5 50.8333,31.5 49.5,31.5C 49.5,26.1667 49.5,20.8333 49.5,15.5 Z"/></g>
<g><path style="opacity:1" fill="#d0d387" d="M 51.5,15.5 C 52.552,15.3505 53.552,15.5172 54.5,16C 53.6198,17.3561 53.2865,18.8561 53.5,20.5C 52.7321,21.2625 52.2321,22.2625 52,23.5C 51.5026,20.854 51.3359,18.1873 51.5,15.5 Z"/></g>
<g><path style="opacity:1" fill="#e5dc99" d="M 70.5,15.5 C 73.5331,15.1315 76.1998,15.7982 78.5,17.5C 79.0846,25.993 77.2513,26.6597 73,19.5C 72.6667,20.8333 72.3333,22.1667 72,23.5C 70.6253,21.0632 70.1253,18.3965 70.5,15.5 Z"/></g>
<g><path style="opacity:1" fill="#dad5a2" d="M 61.5,15.5 C 61.5,18.1667 61.5,20.8333 61.5,23.5C 62.8333,23.5 64.1667,23.5 65.5,23.5C 65.5,20.8333 65.5,18.1667 65.5,15.5C 66.1667,15.5 66.8333,15.5 67.5,15.5C 67.7399,18.5788 67.4066,21.5788 66.5,24.5C 64.3448,24.838 62.0115,24.838 59.5,24.5C 59.5,22.5 59.5,20.5 59.5,18.5C 59.2852,16.8212 59.9519,15.8212 61.5,15.5 Z"/></g>
<g><path style="opacity:1" fill="#fcf9ce" d="M 61.5,15.5 C 62.8333,15.5 64.1667,15.5 65.5,15.5C 65.5,18.1667 65.5,20.8333 65.5,23.5C 64.1667,23.5 62.8333,23.5 61.5,23.5C 61.5,20.8333 61.5,18.1667 61.5,15.5 Z"/></g>
<g><path style="opacity:1" fill="#fafbf2" d="M 133.5,33.5 C 129.25,32.9188 125.584,33.9188 122.5,36.5C 121.025,41.7574 120.358,47.2574 120.5,53C 120.501,56.6833 120.835,60.1833 121.5,63.5C 120.521,67.8169 120.687,72.1502 122,76.5C 122.383,77.056 122.883,77.3893 123.5,77.5C 125.099,77.2322 126.432,77.5655 127.5,78.5C 127.5,78.8333 127.5,79.1667 127.5,79.5C 124.034,79.2847 121.367,80.618 119.5,83.5C 118.329,87.4823 118.329,91.4823 119.5,95.5C 118.624,95.3691 117.957,95.7025 117.5,96.5C 119.35,98.2137 120.684,100.214 121.5,102.5C 119.958,103.301 118.292,103.634 116.5,103.5C 115.942,102.21 114.942,101.377 113.5,101C 114.167,99.6667 115.167,98.6667 116.5,98C 115.137,96.0551 114.303,93.8884 114,91.5C 110.903,87.589 108.07,83.589 105.5,79.5C 108.829,79.7847 111.829,79.1181 114.5,77.5C 115.167,77.1667 115.833,76.8333 116.5,76.5C 117.44,70.5131 118.106,64.3464 118.5,58C 118.514,54.24 117.847,50.74 116.5,47.5C 116.167,47.5 115.833,47.5 115.5,47.5C 115.631,44.6333 114.297,42.9666 111.5,42.5C 111.5,41.8333 111.5,41.1667 111.5,40.5C 110.711,37.5657 108.711,35.7324 105.5,35C 101.973,34.1925 98.6399,34.3592 95.5,35.5C 93.3254,35.6822 91.3254,36.3489 89.5,37.5C 87.8653,36.9537 86.1986,36.6204 84.5,36.5C 84.5,36.1667 84.5,35.8333 84.5,35.5C 82.0336,34.3659 79.367,34.1993 76.5,35C 74.5614,35.9078 73.5614,37.4078 73.5,39.5C 73.2041,52.5494 73.5374,65.5494 74.5,78.5C 72.7508,76.4686 70.7508,76.1353 68.5,77.5C 68.5,77.1667 68.5,76.8333 68.5,76.5C 68.5,62.8333 68.5,49.1667 68.5,35.5C 67.0413,35.5674 65.7079,35.2341 64.5,34.5C 63.791,33.596 62.791,33.2627 61.5,33.5C 61.5,31.5 61.5,29.5 61.5,27.5C 64.0495,27.5608 65.5495,28.8941 66,31.5C 67.2985,28.9938 68.2985,26.3272 69,23.5C 70.3747,25.9368 70.8747,28.6035 70.5,31.5C 71.675,31.719 72.675,31.3857 73.5,30.5C 72.3192,28.802 72.3192,27.1353 73.5,25.5C 74.9882,27.1493 75.9882,29.1493 76.5,31.5C 77.2978,29.9223 77.7978,28.2556 78,26.5C 79.0113,25.6634 80.1779,25.33 81.5,25.5C 83.8333,25.5 86.1667,25.5 88.5,25.5C 90.3664,26.0138 92.1997,26.6805 94,27.5C 95,26.8333 96,26.1667 97,25.5C 101.892,26.9873 106.892,27.9873 112,28.5C 113.855,27.756 115.521,26.756 117,25.5C 118.28,25.6135 119.113,26.2801 119.5,27.5C 121.396,28.4656 123.396,28.7989 125.5,28.5C 125.5,27.1667 125.5,25.8333 125.5,24.5C 128.799,25.3761 132.132,25.5428 135.5,25C 136.451,21.9433 136.784,18.7766 136.5,15.5C 130.463,15.1707 124.463,15.5041 118.5,16.5C 117.68,18.1112 116.346,18.7778 114.5,18.5C 114.5,17.5 114.5,16.5 114.5,15.5C 115.014,13.6336 115.68,11.8003 116.5,10C 116.355,9.22797 116.022,8.5613 115.5,8C 119.578,6.33888 123.245,7.17221 126.5,10.5C 132.535,9.64339 138.201,10.9767 143.5,14.5C 141.955,15.4519 140.288,15.7852 138.5,15.5C 138.703,17.6382 139.703,19.3049 141.5,20.5C 138.762,22.5767 136.762,25.2433 135.5,28.5C 135.833,29.1667 136.167,29.8333 136.5,30.5C 135.271,31.2811 133.938,31.7811 132.5,32C 133.056,32.3826 133.389,32.8826 133.5,33.5 Z"/></g>
<g><path style="opacity:1" fill="#fef1ab" d="M 31.5,17.5 C 31.5,17.8333 31.5,18.1667 31.5,18.5C 22.8269,18.3336 14.1603,18.5002 5.5,19C 4.66667,19.8333 3.83333,20.6667 3,21.5C 2.50006,39.8303 2.33339,58.1636 2.5,76.5C 2.16667,76.5 1.83333,76.5 1.5,76.5C 1.33339,57.8304 1.50005,39.1637 2,20.5C 2.83333,19.6667 3.66667,18.8333 4.5,18C 13.4938,17.5002 22.4938,17.3336 31.5,17.5 Z"/></g>
<g><path style="opacity:1" fill="#dbbc47" d="M 31.5,18.5 C 31.5,18.8333 31.5,19.1667 31.5,19.5C 23.16,19.3336 14.8267,19.5003 6.5,20C 5.66667,20.8333 4.83333,21.6667 4,22.5C 3.18125,40.5736 3.34792,58.5736 4.5,76.5C 3.83333,76.5 3.16667,76.5 2.5,76.5C 2.33339,58.1636 2.50006,39.8303 3,21.5C 3.83333,20.6667 4.66667,19.8333 5.5,19C 14.1603,18.5002 22.8269,18.3336 31.5,18.5 Z"/></g>
<g><path style="opacity:1" fill="#e6bd38" d="M 36.5,21.5 C 40.7966,24.1295 44.4633,27.4628 47.5,31.5C 47.5,32.8333 47.5,34.1667 47.5,35.5C 46.5041,35.5858 45.6708,35.2524 45,34.5C 44.8251,30.2075 42.9917,27.8742 39.5,27.5C 38.4867,25.4734 37.4867,23.4734 36.5,21.5 Z"/></g>
<g><path style="opacity:1" fill="#fcedb3" d="M 84.5,35.5 C 80.0352,34.5723 76.7018,35.9056 74.5,39.5C 74.1667,39.5 73.8333,39.5 73.5,39.5C 73.5614,37.4078 74.5614,35.9078 76.5,35C 79.367,34.1993 82.0336,34.3659 84.5,35.5 Z"/></g>
<g><path style="opacity:1" fill="#fef6c1" d="M 95.5,35.5 C 98.6399,34.3592 101.973,34.1925 105.5,35C 108.711,35.7324 110.711,37.5657 111.5,40.5C 108.833,39.1667 106.167,37.8333 103.5,36.5C 101.052,35.5269 98.3854,35.1936 95.5,35.5 Z"/></g>
<g><path style="opacity:1" fill="#fff6bd" d="M 151.5,28.5 C 155.311,27.3547 159.311,27.1881 163.5,28C 164.337,29.0113 164.67,30.1779 164.5,31.5C 164.5,32.5 164.5,33.5 164.5,34.5C 168.167,34.5 171.833,34.5 175.5,34.5C 175.5,35.1667 175.5,35.8333 175.5,36.5C 171.566,35.6403 167.566,35.307 163.5,35.5C 163.5,35.1667 163.5,34.8333 163.5,34.5C 163.822,32.2776 163.155,30.4443 161.5,29C 158.183,28.5017 154.85,28.335 151.5,28.5 Z"/></g>
<g><path style="opacity:1" fill="#e6c659" d="M 151.5,28.5 C 154.85,28.335 158.183,28.5017 161.5,29C 163.155,30.4443 163.822,32.2776 163.5,34.5C 161.193,30.1522 157.526,28.6522 152.5,30C 151.442,34.8955 148.442,37.3955 143.5,37.5C 144.552,35.744 146.219,35.0773 148.5,35.5C 148.604,33.2972 149.27,31.2972 150.5,29.5C 150.5,28.8333 150.833,28.5 151.5,28.5 Z"/></g>
<g><path style="opacity:1" fill="#fbfbe9" d="M 202.5,35.5 C 198.766,35.3227 195.099,35.6561 191.5,36.5C 187.147,35.8075 184.48,37.4742 183.5,41.5C 182.637,37.8384 183.97,35.6718 187.5,35C 188.288,32.2155 190.121,31.0488 193,31.5C 196.43,32.4722 199.597,33.8056 202.5,35.5 Z"/></g>
<g><path style="opacity:1" fill="#eecb73" d="M 202.5,35.5 C 202.833,36.1667 203.167,36.8333 203.5,37.5C 199.528,36.3797 195.528,36.3797 191.5,37.5C 191.5,37.1667 191.5,36.8333 191.5,36.5C 195.099,35.6561 198.766,35.3227 202.5,35.5 Z"/></g>
<g><path style="opacity:1" fill="#fef1c6" d="M 219.5,35.5 C 214.29,35.299 209.29,35.9657 204.5,37.5C 204.167,37.5 203.833,37.5 203.5,37.5C 203.167,36.8333 202.833,36.1667 202.5,35.5C 206.022,36.8327 209.188,36.166 212,33.5C 214.669,34.0161 217.169,34.6827 219.5,35.5 Z"/></g>
<g><path style="opacity:1" fill="#e3bb3f" d="M 103.5,36.5 C 106.167,37.8333 108.833,39.1667 111.5,40.5C 111.5,41.1667 111.5,41.8333 111.5,42.5C 108.111,41.3091 104.778,39.8091 101.5,38C 98.4686,37.5046 95.4686,37.6713 92.5,38.5C 92.6107,37.8826 92.944,37.3826 93.5,37C 96.8168,36.5017 100.15,36.335 103.5,36.5 Z"/></g>
<g><path style="opacity:1" fill="#f5de93" d="M 133.5,33.5 C 136.893,35.073 138.226,37.7396 137.5,41.5C 137.828,52.6794 137.495,63.6794 136.5,74.5C 136.667,62.1622 136.5,49.8288 136,37.5C 132.817,35.4766 129.317,34.9766 125.5,36C 124.033,38.3785 123.033,40.8785 122.5,43.5C 122.5,41.1667 122.5,38.8333 122.5,36.5C 125.584,33.9188 129.25,32.9188 133.5,33.5 Z"/></g>
<g><path style="opacity:1" fill="#edcc75" d="M 95.5,35.5 C 98.3854,35.1936 101.052,35.5269 103.5,36.5C 100.15,36.335 96.8168,36.5017 93.5,37C 92.944,37.3826 92.6107,37.8826 92.5,38.5C 90.1667,38.5 87.8333,38.5 85.5,38.5C 85.1667,37.8333 84.8333,37.1667 84.5,36.5C 86.1986,36.6204 87.8653,36.9537 89.5,37.5C 91.3254,36.3489 93.3254,35.6822 95.5,35.5 Z"/></g>
<g><path style="opacity:1" fill="#dab84a" d="M 143.5,38.5 C 143.5,41.5 143.5,44.5 143.5,47.5C 142.102,46.2233 141.436,44.5566 141.5,42.5C 141.34,40.6455 142.007,39.3121 143.5,38.5 Z"/></g>
<g><path style="opacity:1" fill="#f8edb6" d="M 47.5,31.5 C 48.1667,31.5 48.8333,31.5 49.5,31.5C 49.8214,37.0262 49.4881,42.3595 48.5,47.5C 48.1667,47.5 47.8333,47.5 47.5,47.5C 47.5,43.5 47.5,39.5 47.5,35.5C 47.5,34.1667 47.5,32.8333 47.5,31.5 Z"/></g>
<g><path style="opacity:1" fill="#f6b50b" d="M 163.5,34.5 C 163.5,34.8333 163.5,35.1667 163.5,35.5C 172.233,34.9207 175.233,38.9207 172.5,47.5C 169.891,48.2305 167.224,48.7305 164.5,49C 163.944,49.3826 163.611,49.8826 163.5,50.5C 162.351,55.3253 161.851,60.3253 162,65.5C 165.057,66.4505 168.223,66.7839 171.5,66.5C 172.7,69.969 172.7,73.3023 171.5,76.5C 167.486,76.6655 163.486,76.4988 159.5,76C 156.701,74.5349 154.535,72.3682 153,69.5C 152.153,63.1859 151.487,56.8525 151,50.5C 149.152,48.0471 146.652,47.0471 143.5,47.5C 143.5,44.5 143.5,41.5 143.5,38.5C 143.5,38.1667 143.5,37.8333 143.5,37.5C 148.442,37.3955 151.442,34.8955 152.5,30C 157.526,28.6522 161.193,30.1522 163.5,34.5 Z"/></g>
<g><path style="opacity:1" fill="#f5df8e" d="M 111.5,42.5 C 114.297,42.9666 115.631,44.6333 115.5,47.5C 114.13,45.8278 112.797,44.1612 111.5,42.5 Z"/></g>
<g><path style="opacity:1" fill="#fbf6cd" d="M 191.5,36.5 C 191.5,36.8333 191.5,37.1667 191.5,37.5C 190.448,37.3505 189.448,37.5172 188.5,38C 186.153,41.587 183.487,44.7537 180.5,47.5C 179.732,48.2625 179.232,49.2625 179,50.5C 178.501,54.8206 178.334,59.1539 178.5,63.5C 177.192,57.9627 177.192,52.2961 178.5,46.5C 177.643,45.5748 176.643,44.9081 175.5,44.5C 175.5,42.5 175.5,40.5 175.5,38.5C 178.5,38.1667 179.833,39.5 179.5,42.5C 181.099,42.7678 182.432,42.4345 183.5,41.5C 184.48,37.4742 187.147,35.8075 191.5,36.5 Z"/></g>
<g><path style="opacity:1" fill="#f6b509" d="M 85.5,38.5 C 87.8333,38.5 90.1667,38.5 92.5,38.5C 95.4686,37.6713 98.4686,37.5046 101.5,38C 104.778,39.8091 108.111,41.3091 111.5,42.5C 112.797,44.1612 114.13,45.8278 115.5,47.5C 115.832,56.5246 115.498,65.5246 114.5,74.5C 111.425,76.8996 108.425,76.8996 105.5,74.5C 104.739,66.8685 104.572,59.2018 105,51.5C 98.0286,45.5148 92.0286,46.1815 87,53.5C 86.5012,57.4862 86.3345,61.4862 86.5,65.5C 89.1042,76.0737 85.6042,79.0737 76,74.5C 75.3333,62.8333 75.3333,51.1667 76,39.5C 78.921,36.013 82.0876,35.6797 85.5,38.5 Z"/></g>
<g><path style="opacity:1" fill="#e9bf49" d="M 163.5,35.5 C 167.566,35.307 171.566,35.6403 175.5,36.5C 175.5,37.1667 175.5,37.8333 175.5,38.5C 175.5,40.5 175.5,42.5 175.5,44.5C 175.5,45.8333 175.5,47.1667 175.5,48.5C 171.7,50.1432 167.7,50.8099 163.5,50.5C 163.611,49.8826 163.944,49.3826 164.5,49C 167.224,48.7305 169.891,48.2305 172.5,47.5C 175.233,38.9207 172.233,34.9207 163.5,35.5 Z"/></g>
<g><path style="opacity:1" fill="#e9b61d" d="M 31.5,19.5 C 33.5529,19.4021 35.2196,20.0687 36.5,21.5C 25.6346,20.961 14.9679,21.6277 4.5,23.5C 4.33344,36.8375 4.5001,50.1708 5,63.5C 6.02303,64.6001 6.52303,65.9334 6.5,67.5C 6.00288,69.8183 5.66955,72.1516 5.5,74.5C 8.87237,73.4809 12.2057,73.4809 15.5,74.5C 15.5,74.8333 15.5,75.1667 15.5,75.5C 14.1286,76.7868 12.2953,77.4535 10,77.5C 7.96738,77.4944 6.13405,77.1611 4.5,76.5C 3.34792,58.5736 3.18125,40.5736 4,22.5C 4.83333,21.6667 5.66667,20.8333 6.5,20C 14.8267,19.5003 23.16,19.3336 31.5,19.5 Z"/></g>
<g><path style="opacity:1" fill="#efb716" d="M 61.5,35.5 C 63.4367,36.5903 65.27,37.9236 67,39.5C 67.8112,51.5758 67.6446,63.5758 66.5,75.5C 63.1501,75.665 59.8168,75.4983 56.5,75C 55.7734,73.6012 55.2734,72.1012 55,70.5C 54.3333,60.1667 54.3333,49.8333 55,39.5C 57.4254,38.3574 59.5921,37.024 61.5,35.5 Z"/></g>
<g><path style="opacity:1" fill="#fcb303" d="M 57.5,39.5 C 58.4731,41.9479 58.8064,44.6146 58.5,47.5C 59.5,47.5 60.5,47.5 61.5,47.5C 61.1934,53.0934 61.5268,58.5934 62.5,64C 61.1384,66.4388 59.305,66.9388 57,65.5C 56.7028,58.3162 56.2028,51.1496 55.5,44C 55.7586,42.2134 56.4253,40.7134 57.5,39.5 Z"/></g>
<g><path style="opacity:1" fill="#f1db82" d="M 57.5,35.5 C 59.6074,34.5318 61.9407,34.1984 64.5,34.5C 65.7079,35.2341 67.0413,35.5674 68.5,35.5C 68.5,49.1667 68.5,62.8333 68.5,76.5C 67.8333,76.5 67.1667,76.5 66.5,76.5C 66.5,76.1667 66.5,75.8333 66.5,75.5C 67.6446,63.5758 67.8112,51.5758 67,39.5C 65.27,37.9236 63.4367,36.5903 61.5,35.5C 60.1667,35.5 58.8333,35.5 57.5,35.5 Z"/></g>
<g><path style="opacity:1" fill="#f4dd82" d="M 73.5,39.5 C 73.8333,39.5 74.1667,39.5 74.5,39.5C 74.2233,52.5368 74.5566,65.5368 75.5,78.5C 79.8131,79.0095 83.8131,78.3429 87.5,76.5C 87.4431,77.609 87.1098,78.609 86.5,79.5C 82.2984,79.8168 78.2984,79.4834 74.5,78.5C 73.5374,65.5494 73.2041,52.5494 73.5,39.5 Z"/></g>
<g><path style="opacity:1" fill="#f6b40c" d="M 135.5,74.5 C 135.389,75.1174 135.056,75.6174 134.5,76C 130.848,76.4986 127.182,76.6653 123.5,76.5C 123.5,76.1667 123.5,75.8333 123.5,75.5C 124.013,63.1707 124.513,50.8373 125,38.5C 128.333,35.8333 131.667,35.8333 135,38.5C 135.5,50.4954 135.667,62.4954 135.5,74.5 Z"/></g>
<g><path style="opacity:1" fill="#f9fbea" d="M 47.5,47.5 C 47.8333,47.5 48.1667,47.5 48.5,47.5C 49.1958,52.7887 49.0292,58.122 48,63.5C 47.3386,61.0844 45.8386,59.4177 43.5,58.5C 41.4,60.6165 39.0667,62.2831 36.5,63.5C 34.7927,63.2716 33.126,62.9383 31.5,62.5C 31.5,62.1667 31.5,61.8333 31.5,61.5C 32.8734,61.6567 34.2068,61.49 35.5,61C 37.4048,59.5787 39.4048,58.412 41.5,57.5C 45.4119,56.2562 47.4119,53.5895 47.5,49.5C 47.5,48.8333 47.5,48.1667 47.5,47.5 Z"/></g>
<g><path style="opacity:1" fill="#edb825" d="M 203.5,37.5 C 203.833,37.5 204.167,37.5 204.5,37.5C 206.859,40.1796 209.193,40.0129 211.5,37C 214.039,36.2042 216.372,36.3709 218.5,37.5C 216.473,37.3379 214.473,37.5045 212.5,38C 211.253,39.9465 209.92,41.7798 208.5,43.5C 203.727,39.0443 198.061,37.3776 191.5,38.5C 191.5,39.5 191.5,40.5 191.5,41.5C 190.167,41.5 188.833,41.5 187.5,41.5C 186.833,43.5 186.167,45.5 185.5,47.5C 186.5,47.5 187.5,47.5 188.5,47.5C 188.5,48.5 188.5,49.5 188.5,50.5C 184.532,50.468 182.532,52.468 182.5,56.5C 182.913,60.2314 183.58,63.898 184.5,67.5C 183.609,66.8902 182.609,66.5569 181.5,66.5C 180.833,65.5 180.167,64.5 179.5,63.5C 179.392,58.1301 179.725,52.7968 180.5,47.5C 183.487,44.7537 186.153,41.587 188.5,38C 189.448,37.5172 190.448,37.3505 191.5,37.5C 195.528,36.3797 199.528,36.3797 203.5,37.5 Z"/></g>
<g><path style="opacity:1" fill="#fef1bc" d="M 175.5,48.5 C 175.119,49.9311 174.119,50.7645 172.5,51C 169.854,51.4974 167.187,51.6641 164.5,51.5C 164.18,54.8984 164.513,58.2317 165.5,61.5C 167.409,62.3482 169.409,62.6816 171.5,62.5C 171.5,63.5 171.5,64.5 171.5,65.5C 168.67,65.3059 166.004,64.6392 163.5,63.5C 163.5,59.1667 163.5,54.8333 163.5,50.5C 167.7,50.8099 171.7,50.1432 175.5,48.5 Z"/></g>
<g><path style="opacity:1" fill="#fcfbe4" d="M 52.5,38.5 C 52.5,51.1667 52.5,63.8333 52.5,76.5C 50.6096,76.2965 49.1096,76.9632 48,78.5C 47.5065,76.8659 47.3398,75.1992 47.5,73.5C 48.8333,73.5 50.1667,73.5 51.5,73.5C 51.5,71.8333 51.5,70.1667 51.5,68.5C 50.1667,68.5 48.8333,68.5 47.5,68.5C 47.5,67.5 47.5,66.5 47.5,65.5C 48.8333,65.5 50.1667,65.5 51.5,65.5C 51.1734,56.3178 51.5067,47.3178 52.5,38.5 Z"/></g>
<g><path style="opacity:1" fill="#fcf9db" d="M 122.5,36.5 C 122.5,38.8333 122.5,41.1667 122.5,43.5C 122.5,43.8333 122.5,44.1667 122.5,44.5C 121.51,50.6446 121.177,56.9779 121.5,63.5C 120.835,60.1833 120.501,56.6833 120.5,53C 120.358,47.2574 121.025,41.7574 122.5,36.5 Z"/></g>
<g><path style="opacity:1" fill="#f8b409" d="M 36.5,21.5 C 37.4867,23.4734 38.4867,25.4734 39.5,27.5C 42.9917,27.8742 44.8251,30.2075 45,34.5C 45.6708,35.2524 46.5041,35.5858 47.5,35.5C 47.5,39.5 47.5,43.5 47.5,47.5C 47.5,48.1667 47.5,48.8333 47.5,49.5C 44.9022,50.68 43.2355,52.68 42.5,55.5C 40.597,55.7959 38.9303,56.4625 37.5,57.5C 35.5648,56.8505 33.5648,56.5172 31.5,56.5C 31.5,57.5 31.5,58.5 31.5,59.5C 25.966,59.6685 20.6327,60.3351 15.5,61.5C 15.5,65.8333 15.5,70.1667 15.5,74.5C 12.2057,73.4809 8.87237,73.4809 5.5,74.5C 5.66955,72.1516 6.00288,69.8183 6.5,67.5C 6.52303,65.9334 6.02303,64.6001 5,63.5C 4.5001,50.1708 4.33344,36.8375 4.5,23.5C 14.9679,21.6277 25.6346,20.961 36.5,21.5 Z"/></g>
<g><path style="opacity:1" fill="#e9be2c" d="M 31.5,33.5 C 33.143,33.4802 34.4763,34.1468 35.5,35.5C 36.6705,38.8177 36.6705,42.151 35.5,45.5C 35.9186,46.6721 36.5853,47.6721 37.5,48.5C 37,48.8333 36.5,49.1667 36,49.5C 34.5936,48.5862 33.0936,47.9195 31.5,47.5C 31.4734,44.7702 32.1401,42.2702 33.5,40C 33.4814,38.167 32.8148,36.667 31.5,35.5C 31.5,34.8333 31.5,34.1667 31.5,33.5 Z"/></g>
<g><path style="opacity:1" fill="#fdf8d8" d="M 31.5,35.5 C 32.8148,36.667 33.4814,38.167 33.5,40C 32.1401,42.2702 31.4734,44.7702 31.5,47.5C 26.8333,47.5 22.1667,47.5 17.5,47.5C 17.5,43.1667 17.5,38.8333 17.5,34.5C 22.2303,34.2834 26.8969,34.6167 31.5,35.5 Z"/></g>
<g><path style="opacity:1" fill="#edcc6e" d="M 31.5,33.5 C 31.5,34.1667 31.5,34.8333 31.5,35.5C 26.8969,34.6167 22.2303,34.2834 17.5,34.5C 17.5,38.8333 17.5,43.1667 17.5,47.5C 12.3318,33.3342 16.9985,28.6675 31.5,33.5 Z"/></g>
<g><path style="opacity:1" fill="#f6fcfb" d="M 19.5,35.5 C 22.7861,36.2071 26.1194,36.5405 29.5,36.5C 29.5,39.1667 29.5,41.8333 29.5,44.5C 26.1194,44.4595 22.7861,44.7929 19.5,45.5C 19.5,42.1667 19.5,38.8333 19.5,35.5 Z"/></g>
<g><path style="opacity:1" fill="#ebc966" d="M 219.5,35.5 C 220.5,35.8333 221.167,36.5 221.5,37.5C 222.463,50.4506 222.796,63.4506 222.5,76.5C 222.167,76.5 221.833,76.5 221.5,76.5C 221.828,64.3217 221.495,52.3217 220.5,40.5C 220.068,39.2905 219.401,38.2905 218.5,37.5C 216.372,36.3709 214.039,36.2042 211.5,37C 209.193,40.0129 206.859,40.1796 204.5,37.5C 209.29,35.9657 214.29,35.299 219.5,35.5 Z"/></g>
<g><path style="opacity:1" fill="#fff6b3" d="M 221.5,37.5 C 222.117,37.6107 222.617,37.944 223,38.5C 223.827,51.3401 223.66,64.0067 222.5,76.5C 222.796,63.4506 222.463,50.4506 221.5,37.5 Z"/></g>
<g><path style="opacity:1" fill="#fee998" d="M 180.5,47.5 C 179.725,52.7968 179.392,58.1301 179.5,63.5C 179.167,63.5 178.833,63.5 178.5,63.5C 178.334,59.1539 178.501,54.8206 179,50.5C 179.232,49.2625 179.732,48.2625 180.5,47.5 Z"/></g>
<g><path style="opacity:1" fill="#fcf0ba" d="M 47.5,49.5 C 47.4119,53.5895 45.4119,56.2562 41.5,57.5C 41.8333,56.8333 42.1667,56.1667 42.5,55.5C 43.2355,52.68 44.9022,50.68 47.5,49.5 Z"/></g>
<g><path style="opacity:1" fill="#fef1b3" d="M 54.5,35.5 C 53.1667,49.5 53.1667,63.5 54.5,77.5C 53.8333,77.1667 53.1667,76.8333 52.5,76.5C 52.5,63.8333 52.5,51.1667 52.5,38.5C 52.5,37.8333 52.5,37.1667 52.5,36.5C 53.1667,36.1667 53.8333,35.8333 54.5,35.5 Z"/></g>
<g><path style="opacity:1" fill="#ddba49" d="M 54.5,35.5 C 55.5,35.5 56.5,35.5 57.5,35.5C 58.8333,35.5 60.1667,35.5 61.5,35.5C 59.5921,37.024 57.4254,38.3574 55,39.5C 54.3333,49.8333 54.3333,60.1667 55,70.5C 55.2734,72.1012 55.7734,73.6012 56.5,75C 59.8168,75.4983 63.1501,75.665 66.5,75.5C 66.5,75.8333 66.5,76.1667 66.5,76.5C 62.5483,77.2721 58.5483,77.6054 54.5,77.5C 53.1667,63.5 53.1667,49.5 54.5,35.5 Z"/></g>
<g><path style="opacity:1" fill="#e2c14b" d="M 100.5,51.5 C 101.15,51.8039 101.817,52.1373 102.5,52.5C 103.497,60.1378 103.831,67.8045 103.5,75.5C 102.833,68.5 102.167,61.5 101.5,54.5C 101.5,53.8333 101.167,53.5 100.5,53.5C 100.5,52.8333 100.5,52.1667 100.5,51.5 Z"/></g>
<g><path style="opacity:1" fill="#fff1bd" d="M 116.5,47.5 C 117.847,50.74 118.514,54.24 118.5,58C 118.106,64.3464 117.44,70.5131 116.5,76.5C 116.5,66.8333 116.5,57.1667 116.5,47.5 Z"/></g>
<g><path style="opacity:1" fill="#f4cf76" d="M 42.5,55.5 C 42.1667,56.1667 41.8333,56.8333 41.5,57.5C 39.4048,58.412 37.4048,59.5787 35.5,61C 34.2068,61.49 32.8734,61.6567 31.5,61.5C 33.8102,60.675 35.8102,59.3417 37.5,57.5C 38.9303,56.4625 40.597,55.7959 42.5,55.5 Z"/></g>
<g><path style="opacity:1" fill="#e2b82f" d="M 37.5,57.5 C 35.8102,59.3417 33.8102,60.675 31.5,61.5C 26.1667,61.5 20.8333,61.5 15.5,61.5C 20.6327,60.3351 25.966,59.6685 31.5,59.5C 31.5,58.5 31.5,57.5 31.5,56.5C 33.5648,56.5172 35.5648,56.8505 37.5,57.5 Z"/></g>
<g><path style="opacity:1" fill="#dfbd3f" d="M 136.5,74.5 C 136.167,74.5 135.833,74.5 135.5,74.5C 135.667,62.4954 135.5,50.4954 135,38.5C 131.667,35.8333 128.333,35.8333 125,38.5C 124.513,50.8373 124.013,63.1707 123.5,75.5C 122.506,65.3468 122.172,55.0135 122.5,44.5C 122.5,44.1667 122.5,43.8333 122.5,43.5C 123.033,40.8785 124.033,38.3785 125.5,36C 129.317,34.9766 132.817,35.4766 136,37.5C 136.5,49.8288 136.667,62.1622 136.5,74.5 Z"/></g>
<g><path style="opacity:1" fill="#fefbca" d="M 137.5,41.5 C 138.659,52.9927 138.826,64.6593 138,76.5C 137.411,78.8633 135.911,79.8633 133.5,79.5C 131.5,79.5 129.5,79.5 127.5,79.5C 127.5,79.1667 127.5,78.8333 127.5,78.5C 129.527,78.6621 131.527,78.4955 133.5,78C 135.426,77.5776 136.426,76.4109 136.5,74.5C 137.495,63.6794 137.828,52.6794 137.5,41.5 Z"/></g>
<g><path style="opacity:1" fill="#e6c443" d="M 163.5,50.5 C 163.5,54.8333 163.5,59.1667 163.5,63.5C 166.004,64.6392 168.67,65.3059 171.5,65.5C 171.5,65.8333 171.5,66.1667 171.5,66.5C 168.223,66.7839 165.057,66.4505 162,65.5C 161.851,60.3253 162.351,55.3253 163.5,50.5 Z"/></g>
<g><path style="opacity:1" fill="#f8b408" d="M 218.5,37.5 C 219.401,38.2905 220.068,39.2905 220.5,40.5C 220.566,52.1813 220.233,63.848 219.5,75.5C 214.84,74.8333 210.174,74.6666 205.5,75C 204.944,75.3826 204.611,75.8826 204.5,76.5C 200.232,77.3726 195.898,77.7059 191.5,77.5C 191.5,77.1667 191.5,76.8333 191.5,76.5C 188.123,74.4397 185.789,71.4397 184.5,67.5C 183.58,63.898 182.913,60.2314 182.5,56.5C 182.532,52.468 184.532,50.468 188.5,50.5C 188.5,49.5 188.5,48.5 188.5,47.5C 187.5,47.5 186.5,47.5 185.5,47.5C 186.167,45.5 186.833,43.5 187.5,41.5C 188.833,41.5 190.167,41.5 191.5,41.5C 191.5,40.5 191.5,39.5 191.5,38.5C 198.061,37.3776 203.727,39.0443 208.5,43.5C 209.92,41.7798 211.253,39.9465 212.5,38C 214.473,37.5045 216.473,37.3379 218.5,37.5 Z"/></g>
<g><path style="opacity:1" fill="#e9bb1f" d="M 191.5,45.5 C 197.465,46.4257 203.465,47.0924 209.5,47.5C 209.828,52.8746 209.495,58.2079 208.5,63.5C 196.59,69.1382 191.09,65.4715 192,52.5C 193.883,51.3474 194.716,49.6807 194.5,47.5C 192.821,47.7148 191.821,47.0481 191.5,45.5 Z"/></g>
<g><path style="opacity:1" fill="#faf6d0" d="M 205.5,52.5 C 207.026,53.4919 207.693,54.9919 207.5,57C 206.019,62.6179 202.352,64.7845 196.5,63.5C 196.5,62.5 196.5,61.5 196.5,60.5C 203.519,62.1741 206.519,59.5074 205.5,52.5 Z"/></g>
<g><path style="opacity:1" fill="#f8f9f2" d="M 203.5,50.5 C 203.833,51.5 204.5,52.1667 205.5,52.5C 206.519,59.5074 203.519,62.1741 196.5,60.5C 195.508,60.6716 194.842,60.3382 194.5,59.5C 193.764,52.9027 196.764,49.9027 203.5,50.5 Z"/></g>
<g><path style="opacity:1" fill="#f9d88b" d="M 203.5,50.5 C 196.764,49.9027 193.764,52.9027 194.5,59.5C 192.425,51.5743 195.425,48.5743 203.5,50.5 Z"/></g>
<g><path style="opacity:1" fill="#fff1b3" d="M 100.5,51.5 C 100.5,52.1667 100.5,52.8333 100.5,53.5C 97.592,52.4309 94.592,52.2642 91.5,53C 90.944,53.3826 90.6107,53.8826 90.5,54.5C 89.8333,61.1667 89.1667,67.8333 88.5,74.5C 88.5,67.8333 88.5,61.1667 88.5,54.5C 89.2899,53.2058 90.2899,52.0391 91.5,51C 94.6965,50.1955 97.6965,50.3622 100.5,51.5 Z"/></g>
<g><path style="opacity:1" fill="#fbf4c2" d="M 150.5,29.5 C 149.27,31.2972 148.604,33.2972 148.5,35.5C 146.219,35.0773 144.552,35.744 143.5,37.5C 143.5,37.8333 143.5,38.1667 143.5,38.5C 142.007,39.3121 141.34,40.6455 141.5,42.5C 141.436,44.5566 142.102,46.2233 143.5,47.5C 143.5,48.5 143.5,49.5 143.5,50.5C 145.5,50.5 147.5,50.5 149.5,50.5C 149.336,57.2022 149.669,63.8689 150.5,70.5C 149.015,68.8379 147.682,67.0046 146.5,65C 146.783,60.9406 146.783,56.7739 146.5,52.5C 144.856,52.7135 143.356,52.3802 142,51.5C 140.561,46.2375 140.228,40.9042 141,35.5C 142.734,34.7511 144.567,34.2511 146.5,34C 147.191,32.9326 147.691,31.7659 148,30.5C 148.671,29.7476 149.504,29.4142 150.5,29.5 Z"/></g>
<g><path style="opacity:1" fill="#f8fcfb" d="M 100.5,53.5 C 100.666,60.175 100.5,66.8417 100,73.5C 98.1291,74.6678 96.6291,74.1678 95.5,72C 94.2068,71.51 92.8734,71.3433 91.5,71.5C 91.0932,65.8387 90.7599,60.172 90.5,54.5C 90.6107,53.8826 90.944,53.3826 91.5,53C 94.592,52.2642 97.592,52.4309 100.5,53.5 Z"/></g>
<g><path style="opacity:1" fill="#e4bd49" d="M 84.5,35.5 C 84.5,35.8333 84.5,36.1667 84.5,36.5C 84.8333,37.1667 85.1667,37.8333 85.5,38.5C 82.0876,35.6797 78.921,36.013 76,39.5C 75.3333,51.1667 75.3333,62.8333 76,74.5C 85.6042,79.0737 89.1042,76.0737 86.5,65.5C 87.1667,61.8333 87.8333,58.1667 88.5,54.5C 88.5,61.1667 88.5,67.8333 88.5,74.5C 88.6716,75.4916 88.3382,76.1583 87.5,76.5C 83.8131,78.3429 79.8131,79.0095 75.5,78.5C 74.5566,65.5368 74.2233,52.5368 74.5,39.5C 76.7018,35.9056 80.0352,34.5723 84.5,35.5 Z"/></g>
<g><path style="opacity:1" fill="#e8c15e" d="M 181.5,66.5 C 182.609,66.5569 183.609,66.8902 184.5,67.5C 185.789,71.4397 188.123,74.4397 191.5,76.5C 186.535,74.8686 183.202,71.5353 181.5,66.5 Z"/></g>
<g><path style="opacity:1" fill="#e7b82e" d="M 115.5,47.5 C 115.833,47.5 116.167,47.5 116.5,47.5C 116.5,57.1667 116.5,66.8333 116.5,76.5C 115.833,76.8333 115.167,77.1667 114.5,77.5C 110.833,77.5 107.167,77.5 103.5,77.5C 103.5,76.8333 103.5,76.1667 103.5,75.5C 103.831,67.8045 103.497,60.1378 102.5,52.5C 101.817,52.1373 101.15,51.8039 100.5,51.5C 97.6965,50.3622 94.6965,50.1955 91.5,51C 90.2899,52.0391 89.2899,53.2058 88.5,54.5C 87.8333,58.1667 87.1667,61.8333 86.5,65.5C 86.3345,61.4862 86.5012,57.4862 87,53.5C 92.0286,46.1815 98.0286,45.5148 105,51.5C 104.572,59.2018 104.739,66.8685 105.5,74.5C 108.425,76.8996 111.425,76.8996 114.5,74.5C 115.498,65.5246 115.832,56.5246 115.5,47.5 Z"/></g>
<g><path style="opacity:1" fill="#fdf9d3" d="M 178.5,63.5 C 178.833,63.5 179.167,63.5 179.5,63.5C 180.167,64.5 180.833,65.5 181.5,66.5C 183.202,71.5353 186.535,74.8686 191.5,76.5C 191.5,76.8333 191.5,77.1667 191.5,77.5C 191.5,77.8333 191.5,78.1667 191.5,78.5C 189.208,78.7564 187.041,78.4231 185,77.5C 183.738,74.2433 181.738,71.5767 179,69.5C 178.505,67.5273 178.338,65.5273 178.5,63.5 Z"/></g>
<g><path style="opacity:1" fill="#e1c667" d="M 15.5,61.5 C 20.8333,61.5 26.1667,61.5 31.5,61.5C 31.5,61.8333 31.5,62.1667 31.5,62.5C 26.8215,62.3342 22.1548,62.5008 17.5,63C 16.8599,67.2679 16.1933,71.4345 15.5,75.5C 15.5,75.1667 15.5,74.8333 15.5,74.5C 15.5,70.1667 15.5,65.8333 15.5,61.5 Z"/></g>
<g><path style="opacity:1" fill="#fdb206" d="M 62.5,39.5 C 63.5,39.5 64.5,39.5 65.5,39.5C 65.5,51.1667 65.5,62.8333 65.5,74.5C 62.8333,74.5 60.1667,74.5 57.5,74.5C 57.5,72.8333 57.5,71.1667 57.5,69.5C 59.5,69.8333 61.5,70.1667 63.5,70.5C 64.0317,61.1921 63.365,52.0254 61.5,43C 61.6483,41.7441 61.9816,40.5774 62.5,39.5 Z"/></g>
<g><path style="opacity:1" fill="#fdfcec" d="M 100.5,53.5 C 101.167,53.5 101.5,53.8333 101.5,54.5C 101.334,61.8409 101.5,69.1742 102,76.5C 102.383,77.056 102.883,77.3893 103.5,77.5C 103.5,78.1667 103.5,78.8333 103.5,79.5C 100.85,76.9724 98.1838,76.9724 95.5,79.5C 94.1255,78.2887 92.6255,77.2887 91,76.5C 89.8767,78.0997 88.3767,79.0997 86.5,79.5C 87.1098,78.609 87.4431,77.609 87.5,76.5C 88.3382,76.1583 88.6716,75.4916 88.5,74.5C 89.1667,67.8333 89.8333,61.1667 90.5,54.5C 90.7599,60.172 91.0932,65.8387 91.5,71.5C 92.8734,71.3433 94.2068,71.51 95.5,72C 96.6291,74.1678 98.1291,74.6678 100,73.5C 100.5,66.8417 100.666,60.175 100.5,53.5 Z"/></g>
<g><path style="opacity:1" fill="#fef8ab" d="M 101.5,54.5 C 102.167,61.5 102.833,68.5 103.5,75.5C 103.5,76.1667 103.5,76.8333 103.5,77.5C 102.883,77.3893 102.383,77.056 102,76.5C 101.5,69.1742 101.334,61.8409 101.5,54.5 Z"/></g>
<g><path style="opacity:1" fill="#fefac0" d="M 122.5,44.5 C 122.172,55.0135 122.506,65.3468 123.5,75.5C 123.5,75.8333 123.5,76.1667 123.5,76.5C 123.5,76.8333 123.5,77.1667 123.5,77.5C 122.883,77.3893 122.383,77.056 122,76.5C 120.687,72.1502 120.521,67.8169 121.5,63.5C 121.177,56.9779 121.51,50.6446 122.5,44.5 Z"/></g>
<g><path style="opacity:1" fill="#e5b827" d="M 220.5,40.5 C 221.495,52.3217 221.828,64.3217 221.5,76.5C 215.903,77.4043 210.236,77.4043 204.5,76.5C 204.611,75.8826 204.944,75.3826 205.5,75C 210.174,74.6666 214.84,74.8333 219.5,75.5C 220.233,63.848 220.566,52.1813 220.5,40.5 Z"/></g>
<g><path style="opacity:1" fill="#e5b835" d="M 143.5,47.5 C 146.652,47.0471 149.152,48.0471 151,50.5C 151.487,56.8525 152.153,63.1859 153,69.5C 154.535,72.3682 156.701,74.5349 159.5,76C 163.486,76.4988 167.486,76.6655 171.5,76.5C 163.452,79.6016 156.452,77.9349 150.5,71.5C 150.5,71.1667 150.5,70.8333 150.5,70.5C 149.669,63.8689 149.336,57.2022 149.5,50.5C 147.5,50.5 145.5,50.5 143.5,50.5C 143.5,49.5 143.5,48.5 143.5,47.5 Z"/></g>
<g><path style="opacity:1" fill="#fdfacf" d="M 171.5,66.5 C 171.5,66.1667 171.5,65.8333 171.5,65.5C 172.583,65.5394 173.583,65.8728 174.5,66.5C 175.659,70.122 175.825,73.7887 175,77.5C 173.89,79.0368 172.39,79.7035 170.5,79.5C 172.994,77.9909 173.994,75.6576 173.5,72.5C 173.333,70.8333 173.167,69.1667 173,67.5C 172.617,66.944 172.117,66.6107 171.5,66.5 Z"/></g>
<g><path style="opacity:1" fill="#e6ca6a" d="M 135.5,74.5 C 135.833,74.5 136.167,74.5 136.5,74.5C 136.426,76.4109 135.426,77.5776 133.5,78C 131.527,78.4955 129.527,78.6621 127.5,78.5C 126.432,77.5655 125.099,77.2322 123.5,77.5C 123.5,77.1667 123.5,76.8333 123.5,76.5C 127.182,76.6653 130.848,76.4986 134.5,76C 135.056,75.6174 135.389,75.1174 135.5,74.5 Z"/></g>
<g><path style="opacity:1" fill="#faedb4" d="M 66.5,76.5 C 67.1667,76.5 67.8333,76.5 68.5,76.5C 68.5,76.8333 68.5,77.1667 68.5,77.5C 67.6618,77.8417 67.3284,78.5084 67.5,79.5C 63.5,79.5 59.5,79.5 55.5,79.5C 55.1667,78.8333 54.8333,78.1667 54.5,77.5C 58.5483,77.6054 62.5483,77.2721 66.5,76.5 Z"/></g>
<g><path style="opacity:1" fill="#f8d789" d="M 103.5,77.5 C 107.167,77.5 110.833,77.5 114.5,77.5C 111.829,79.1181 108.829,79.7847 105.5,79.5C 104.833,79.5 104.167,79.5 103.5,79.5C 103.5,78.8333 103.5,78.1667 103.5,77.5 Z"/></g>
<g><path style="opacity:1" fill="#f8e29b" d="M 171.5,66.5 C 172.117,66.6107 172.617,66.944 173,67.5C 173.167,69.1667 173.333,70.8333 173.5,72.5C 173.994,75.6576 172.994,77.9909 170.5,79.5C 163.481,80.2408 156.981,78.9074 151,75.5C 150.51,74.2068 150.343,72.8734 150.5,71.5C 156.452,77.9349 163.452,79.6016 171.5,76.5C 172.7,73.3023 172.7,69.969 171.5,66.5 Z"/></g>
<g><path style="opacity:1" fill="#f6df91" d="M 204.5,76.5 C 210.236,77.4043 215.903,77.4043 221.5,76.5C 221.833,76.5 222.167,76.5 222.5,76.5C 220.944,78.9882 218.611,79.9882 215.5,79.5C 212.621,79.0242 209.788,78.3576 207,77.5C 203.599,78.6132 200.099,79.2799 196.5,79.5C 194.631,79.4932 192.964,79.1599 191.5,78.5C 191.5,78.1667 191.5,77.8333 191.5,77.5C 195.898,77.7059 200.232,77.3726 204.5,76.5 Z"/></g>
<g><path style="opacity:1" fill="#fcefaf" d="M 31.5,62.5 C 27.3656,63.4849 23.0323,63.8182 18.5,63.5C 19.0919,69.1052 18.2585,74.4386 16,79.5C 11.9955,79.6936 7.82879,79.3602 3.5,78.5C 3.13727,77.8165 2.80393,77.1499 2.5,76.5C 3.16667,76.5 3.83333,76.5 4.5,76.5C 6.13405,77.1611 7.96738,77.4944 10,77.5C 12.2953,77.4535 14.1286,76.7868 15.5,75.5C 16.1933,71.4345 16.8599,67.2679 17.5,63C 22.1548,62.5008 26.8215,62.3342 31.5,62.5 Z"/></g>
<g><path style="opacity:1" fill="#f7fcf9" d="M 74.5,78.5 C 78.2984,79.4834 82.2984,79.8168 86.5,79.5C 88.3767,79.0997 89.8767,78.0997 91,76.5C 92.6255,77.2887 94.1255,78.2887 95.5,79.5C 98.1838,76.9724 100.85,76.9724 103.5,79.5C 104.167,79.5 104.833,79.5 105.5,79.5C 108.07,83.589 110.903,87.589 114,91.5C 114.303,93.8884 115.137,96.0551 116.5,98C 115.167,98.6667 114.167,99.6667 113.5,101C 114.942,101.377 115.942,102.21 116.5,103.5C 114.833,103.5 113.167,103.5 111.5,103.5C 113.795,93.1538 109.795,87.8205 99.5,87.5C 97.597,86.5485 95.597,85.5485 93.5,84.5C 89.0618,86.5596 84.3951,88.0596 79.5,89C 80.3578,90.57 81.0245,92.2367 81.5,94C 80.6328,97.1052 80.2994,100.272 80.5,103.5C 74.7184,103.311 69.0517,103.978 63.5,105.5C 63.5,103.833 63.5,102.167 63.5,100.5C 58.9115,100.881 58.5782,102.047 62.5,104C 61.8333,104.333 61.1667,104.667 60.5,105C 56.4452,105.232 52.4452,105.732 48.5,106.5C 47.5108,102.893 47.1774,99.226 47.5,95.5C 48.5,95.5 49.5,95.5 50.5,95.5C 51.5,95.5 52.5,95.5 53.5,95.5C 60.3441,100.33 65.6775,98.9967 69.5,91.5C 70.1386,90.9032 70.472,90.0698 70.5,89C 69.7779,85.6706 68.7779,82.5039 67.5,79.5C 67.3284,78.5084 67.6618,77.8417 68.5,77.5C 70.7508,76.1353 72.7508,76.4686 74.5,78.5 Z"/></g>
<g><path style="opacity:1" fill="#3196a8" d="M 133.5,81.5 C 135.624,82.0312 137.124,83.3645 138,85.5C 138.667,88.1667 138.667,90.8333 138,93.5C 137.722,94.4158 137.222,95.0825 136.5,95.5C 137.085,90.0478 134.919,86.3812 130,84.5C 127.307,84.7622 125.14,85.9288 123.5,88C 124.322,90.4339 124.656,92.9339 124.5,95.5C 123.833,95.5 123.167,95.5 122.5,95.5C 119.072,85.2611 122.739,80.5944 133.5,81.5 Z"/></g>
<g><path style="opacity:1" fill="#d3f6f8" d="M 55.5,79.5 C 59.5,79.5 63.5,79.5 67.5,79.5C 68.7779,82.5039 69.7779,85.6706 70.5,89C 70.472,90.0698 70.1386,90.9032 69.5,91.5C 68.9108,82.6875 64.2441,79.5208 55.5,82C 54.6667,82.8333 53.8333,83.6667 53,84.5C 52.3219,88.2211 52.4886,91.8878 53.5,95.5C 52.5,95.5 51.5,95.5 50.5,95.5C 49.8099,91.5104 49.6432,87.5104 50,83.5C 52.167,82.5119 54.0003,81.1786 55.5,79.5 Z"/></g>
<g><path style="opacity:1" fill="#b2474c" d="M 99.5,87.5 C 100.167,88.1667 100.833,88.8333 101.5,89.5C 88.3868,87.6202 82.7201,92.9535 84.5,105.5C 85.7196,107.282 86.3862,109.282 86.5,111.5C 84.058,109.879 82.7247,107.546 82.5,104.5C 82.3677,101.43 82.701,98.4299 83.5,95.5C 84.2026,93.2843 85.5359,91.451 87.5,90C 91.253,88.0111 95.253,87.1778 99.5,87.5 Z"/></g>
<g><path style="opacity:1" fill="#d6f7f9" d="M 127.5,79.5 C 129.5,79.5 131.5,79.5 133.5,79.5C 133.5,80.1667 133.5,80.8333 133.5,81.5C 122.739,80.5944 119.072,85.2611 122.5,95.5C 121.5,95.5 120.5,95.5 119.5,95.5C 118.329,91.4823 118.329,87.4823 119.5,83.5C 121.367,80.618 124.034,79.2847 127.5,79.5 Z"/></g>
<g><path style="opacity:1" fill="#2e95ac" d="M 69.5,91.5 C 65.6775,98.9967 60.3441,100.33 53.5,95.5C 52.4886,91.8878 52.3219,88.2211 53,84.5C 53.8333,83.6667 54.6667,82.8333 55.5,82C 64.2441,79.5208 68.9108,82.6875 69.5,91.5 Z"/></g>
<g><path style="opacity:1" fill="#069ac8" d="M 57.5,83.5 C 60.1194,83.2317 62.6194,83.565 65,84.5C 65.4986,88.1516 65.6653,91.8183 65.5,95.5C 62.8333,95.5 60.1667,95.5 57.5,95.5C 57.5,94.5 57.5,93.5 57.5,92.5C 59.5,92.5 61.5,92.5 63.5,92.5C 64.0846,84.007 62.2513,83.3403 58,90.5C 54.8789,88.3262 54.7123,85.9928 57.5,83.5 Z"/></g>
<g><path style="opacity:1" fill="#089abd" d="M 136.5,95.5 C 136.167,95.5 135.833,95.5 135.5,95.5C 131.833,95.5 128.167,95.5 124.5,95.5C 124.656,92.9339 124.322,90.4339 123.5,88C 125.14,85.9288 127.307,84.7622 130,84.5C 134.919,86.3812 137.085,90.0478 136.5,95.5 Z"/></g>
<g><path style="opacity:1" fill="#349a9b" d="M 124.5,95.5 C 128.167,95.5 131.833,95.5 135.5,95.5C 131.713,99.3382 128.047,99.3382 124.5,95.5 Z"/></g>
<g><path style="opacity:1" fill="#eaaeb0" d="M 108.5,95.5 C 109.117,95.6107 109.617,95.944 110,96.5C 110.805,99.6965 110.638,102.696 109.5,105.5C 109.658,102.098 109.324,98.7644 108.5,95.5 Z"/></g>
<g><path style="opacity:1" fill="#c52f36" d="M 101.5,89.5 C 102.492,89.3284 103.158,89.6618 103.5,90.5C 103.5,91.1667 103.5,91.8333 103.5,92.5C 97.4646,89.2528 92.1313,90.0861 87.5,95C 88.3802,96.3561 88.7135,97.8561 88.5,99.5C 87.1667,99.5 85.8333,99.5 84.5,99.5C 84.5,101.5 84.5,103.5 84.5,105.5C 82.7201,92.9535 88.3868,87.6202 101.5,89.5 Z"/></g>
<g><path style="opacity:1" fill="#a93c42" d="M 103.5,90.5 C 105.549,91.8818 107.215,93.5484 108.5,95.5C 109.324,98.7644 109.658,102.098 109.5,105.5C 109.5,106.167 109.167,106.5 108.5,106.5C 109.261,100.832 107.595,96.1657 103.5,92.5C 103.5,91.8333 103.5,91.1667 103.5,90.5 Z"/></g>
<g><path style="opacity:1" fill="#d58a8e" d="M 83.5,95.5 C 82.701,98.4299 82.3677,101.43 82.5,104.5C 81.3659,102.034 81.1993,99.367 82,96.5C 82.3826,95.944 82.8826,95.6107 83.5,95.5 Z"/></g>
<g><path style="opacity:1" fill="#d6252e" d="M 103.5,92.5 C 107.595,96.1657 109.261,100.832 108.5,106.5C 108.107,108.284 107.441,109.95 106.5,111.5C 104.833,112.167 103.167,112.833 101.5,113.5C 96.3909,113.57 91.3909,112.903 86.5,111.5C 86.3862,109.282 85.7196,107.282 84.5,105.5C 84.5,103.5 84.5,101.5 84.5,99.5C 85.8333,99.5 87.1667,99.5 88.5,99.5C 88.7135,97.8561 88.3802,96.3561 87.5,95C 92.1313,90.0861 97.4646,89.2528 103.5,92.5 Z"/></g>
<g><path style="opacity:1" fill="#fcf3f2" d="M 99.5,87.5 C 109.795,87.8205 113.795,93.1538 111.5,103.5C 113.167,103.5 114.833,103.5 116.5,103.5C 118.292,103.634 119.958,103.301 121.5,102.5C 122.653,103.313 122.653,104.313 121.5,105.5C 125.798,106.425 130.131,106.425 134.5,105.5C 137.741,105.448 140.741,106.115 143.5,107.5C 143.5,108.833 143.5,110.167 143.5,111.5C 142.833,111.5 142.167,111.5 141.5,111.5C 141.423,110.25 140.756,109.417 139.5,109C 134.816,107.091 130.15,107.091 125.5,109C 124.244,109.417 123.577,110.25 123.5,111.5C 121.5,113.167 119.5,114.833 117.5,116.5C 117.5,115.5 117.5,114.5 117.5,113.5C 115.508,113.328 113.842,113.995 112.5,115.5C 110.821,113.896 108.821,113.229 106.5,113.5C 106.5,112.833 106.5,112.167 106.5,111.5C 107.441,109.95 108.107,108.284 108.5,106.5C 109.167,106.5 109.5,106.167 109.5,105.5C 110.638,102.696 110.805,99.6965 110,96.5C 109.617,95.944 109.117,95.6107 108.5,95.5C 107.215,93.5484 105.549,91.8818 103.5,90.5C 103.158,89.6618 102.492,89.3284 101.5,89.5C 100.833,88.8333 100.167,88.1667 99.5,87.5 Z"/></g>
<g><path style="opacity:1" fill="#fde2e3" d="M 55.5,107.5 C 60.0952,106.816 64.7619,106.649 69.5,107C 71.9476,111.115 74.7809,114.948 78,118.5C 78.4828,119.448 78.6495,120.448 78.5,121.5C 75.479,117.812 72.1456,114.479 68.5,111.5C 68.1667,111.5 67.8333,111.5 67.5,111.5C 66.8091,109.978 65.6424,108.978 64,108.5C 61.2305,107.652 58.3971,107.319 55.5,107.5 Z"/></g>
<g><path style="opacity:1" fill="#b84649" d="M 141.5,111.5 C 138.678,111.322 136.011,110.655 133.5,109.5C 130.081,109.957 126.748,110.624 123.5,111.5C 123.577,110.25 124.244,109.417 125.5,109C 130.15,107.091 134.816,107.091 139.5,109C 140.756,109.417 141.423,110.25 141.5,111.5 Z"/></g>
<g><path style="opacity:1" fill="#b94e50" d="M 55.5,107.5 C 58.3971,107.319 61.2305,107.652 64,108.5C 65.6424,108.978 66.8091,109.978 67.5,111.5C 64.7201,110.771 61.8868,110.104 59,109.5C 55.7519,109.94 52.5853,110.607 49.5,111.5C 50.8021,109.178 52.8021,107.845 55.5,107.5 Z"/></g>
<g><path style="opacity:1" fill="#d52630" d="M 67.5,111.5 C 67.8333,111.5 68.1667,111.5 68.5,111.5C 70.0852,116.273 72.7519,120.44 76.5,124C 80.2905,125.026 83.9571,126.193 87.5,127.5C 89.1172,128.038 90.7839,128.371 92.5,128.5C 93.5,129.167 94.5,129.833 95.5,130.5C 93.3043,130.565 91.3043,131.232 89.5,132.5C 94.7643,134.493 100.098,134.827 105.5,133.5C 105.167,134.167 104.833,134.833 104.5,135.5C 96.4891,136.787 88.4891,136.453 80.5,134.5C 79.8333,134.5 79.5,134.167 79.5,133.5C 76.4017,129.624 72.9017,125.957 69,122.5C 68.5172,121.552 68.3505,120.552 68.5,119.5C 66.7839,119.371 65.1172,119.038 63.5,118.5C 63.5,118.167 63.5,117.833 63.5,117.5C 62.4855,116.235 60.9855,115.569 59,115.5C 55.4059,114.717 53.5726,116.05 53.5,119.5C 52.2262,123.074 52.3929,126.741 54,130.5C 54.6708,131.252 55.5041,131.586 56.5,131.5C 56.6941,134.33 57.3608,136.996 58.5,139.5C 60.1667,139.5 61.8333,139.5 63.5,139.5C 63.5,139.833 63.5,140.167 63.5,140.5C 65.3707,142.232 66.704,144.398 67.5,147C 70.6102,147.053 72.9435,148.386 74.5,151C 81.1605,152.28 87.8272,153.447 94.5,154.5C 97.6862,154.498 100.686,154.165 103.5,153.5C 106.428,153.435 109.095,152.768 111.5,151.5C 115.71,149.955 120.043,148.955 124.5,148.5C 123.588,151.406 121.922,153.739 119.5,155.5C 112.242,156.548 105.242,158.214 98.5,160.5C 92.828,160.24 87.1613,159.907 81.5,159.5C 80.8333,159.5 80.1667,159.5 79.5,159.5C 79.6309,158.624 79.2975,157.957 78.5,157.5C 73.987,154.904 69.3203,152.904 64.5,151.5C 61.9108,150.581 59.9108,148.914 58.5,146.5C 57.6586,144.621 57.3253,142.621 57.5,140.5C 53.4771,139.975 51.3104,137.641 51,133.5C 50.1841,132.177 49.0174,131.511 47.5,131.5C 47.0893,124.666 47.756,117.999 49.5,111.5C 52.5853,110.607 55.7519,109.94 59,109.5C 61.8868,110.104 64.7201,110.771 67.5,111.5 Z"/></g>
<g><path style="opacity:1" fill="#b53c41" d="M 86.5,111.5 C 91.3909,112.903 96.3909,113.57 101.5,113.5C 101.389,114.117 101.056,114.617 100.5,115C 95.9787,115.85 91.6454,115.35 87.5,113.5C 87.1667,112.833 86.8333,112.167 86.5,111.5 Z"/></g>
<g><path style="opacity:1" fill="#d52631" d="M 141.5,111.5 C 142.167,111.5 142.833,111.5 143.5,111.5C 143.5,111.833 143.5,112.167 143.5,112.5C 144.573,118.817 144.573,125.15 143.5,131.5C 143.5,132.167 143.5,132.833 143.5,133.5C 141.898,137.095 139.898,140.429 137.5,143.5C 137.167,143.5 136.833,143.5 136.5,143.5C 133.657,143.942 130.991,144.942 128.5,146.5C 127.713,145.758 127.047,144.925 126.5,144C 128.5,143.333 130.5,142.667 132.5,142C 132.043,141.586 131.709,141.086 131.5,140.5C 133.334,138.502 134.334,136.168 134.5,133.5C 136.545,132.077 137.545,130.077 137.5,127.5C 138.765,126.486 139.431,124.986 139.5,123C 139.275,120.472 138.942,117.972 138.5,115.5C 134.833,114.167 131.167,114.167 127.5,115.5C 127.5,116.5 127.5,117.5 127.5,118.5C 127.5,118.833 127.5,119.167 127.5,119.5C 123.488,118.887 121.488,120.554 121.5,124.5C 120.5,124.5 119.5,124.5 118.5,124.5C 118.579,123.07 118.246,121.736 117.5,120.5C 120.592,118.217 122.592,115.217 123.5,111.5C 126.748,110.624 130.081,109.957 133.5,109.5C 136.011,110.655 138.678,111.322 141.5,111.5 Z"/></g>
<g><path style="opacity:1" fill="#b33941" d="M 63.5,117.5 C 59.6238,115.742 56.2904,116.408 53.5,119.5C 53.5726,116.05 55.4059,114.717 59,115.5C 60.9855,115.569 62.4855,116.235 63.5,117.5 Z"/></g>
<g><path style="opacity:1" fill="#f0cac2" d="M 106.5,111.5 C 106.5,112.167 106.5,112.833 106.5,113.5C 105.373,114.122 104.373,114.955 103.5,116C 98.78,116.221 94.1133,116.721 89.5,117.5C 88.6376,116.234 87.9709,114.901 87.5,113.5C 91.6454,115.35 95.9787,115.85 100.5,115C 101.056,114.617 101.389,114.117 101.5,113.5C 103.167,112.833 104.833,112.167 106.5,111.5 Z"/></g>
<g><path style="opacity:1" fill="#b83c44" d="M 137.5,127.5 C 137.968,123.869 137.301,120.535 135.5,117.5C 132.658,116.267 129.992,116.6 127.5,118.5C 127.5,117.5 127.5,116.5 127.5,115.5C 131.167,114.167 134.833,114.167 138.5,115.5C 138.942,117.972 139.275,120.472 139.5,123C 139.431,124.986 138.765,126.486 137.5,127.5 Z"/></g>
<g><path style="opacity:1" fill="#fdddde" d="M 63.5,117.5 C 63.5,117.833 63.5,118.167 63.5,118.5C 63.5,118.833 63.5,119.167 63.5,119.5C 62.1751,120.953 61.3418,120.619 61,118.5C 57.6607,118.839 56.1607,120.672 56.5,124C 57.3514,128.532 59.5181,132.365 63,135.5C 63.4828,136.448 63.6495,137.448 63.5,138.5C 60.9387,136.36 58.6054,134.027 56.5,131.5C 54.8766,127.673 53.8766,123.673 53.5,119.5C 56.2904,116.408 59.6238,115.742 63.5,117.5 Z"/></g>
<g><path style="opacity:1" fill="#bb474e" d="M 63.5,119.5 C 63.5,119.167 63.5,118.833 63.5,118.5C 65.1172,119.038 66.7839,119.371 68.5,119.5C 68.3505,120.552 68.5172,121.552 69,122.5C 72.9017,125.957 76.4017,129.624 79.5,133.5C 77.0712,133.415 75.0712,132.415 73.5,130.5C 70.8504,126.192 67.5171,122.526 63.5,119.5 Z"/></g>
<g><path style="opacity:1" fill="#c2484c" d="M 68.5,111.5 C 72.1456,114.479 75.479,117.812 78.5,121.5C 81.5,123.5 84.5,125.5 87.5,127.5C 83.9571,126.193 80.2905,125.026 76.5,124C 72.7519,120.44 70.0852,116.273 68.5,111.5 Z"/></g>
<g><path style="opacity:1" fill="#b93638" d="M 143.5,112.5 C 145.008,114.181 146.008,116.181 146.5,118.5C 146.605,122.548 146.272,126.548 145.5,130.5C 144.833,130.833 144.167,131.167 143.5,131.5C 144.573,125.15 144.573,118.817 143.5,112.5 Z"/></g>
<g><path style="opacity:1" fill="#c15155" d="M 47.5,111.5 C 48.1667,111.5 48.8333,111.5 49.5,111.5C 47.756,117.999 47.0893,124.666 47.5,131.5C 43.5221,124.93 43.5221,118.263 47.5,111.5 Z"/></g>
<g><path style="opacity:1" fill="#c5383f" d="M 123.5,111.5 C 122.592,115.217 120.592,118.217 117.5,120.5C 118.246,121.736 118.579,123.07 118.5,124.5C 119.5,124.5 120.5,124.5 121.5,124.5C 121.488,120.554 123.488,118.887 127.5,119.5C 127.167,120.167 126.833,120.833 126.5,121.5C 123.725,124.205 121.058,127.039 118.5,130C 115.757,132.038 112.757,133.538 109.5,134.5C 107.784,134.629 106.117,134.962 104.5,135.5C 104.833,134.833 105.167,134.167 105.5,133.5C 110.454,132.308 114.787,129.975 118.5,126.5C 116.423,124.918 114.09,123.918 111.5,123.5C 113.448,121.211 115.448,118.878 117.5,116.5C 119.5,114.833 121.5,113.167 123.5,111.5 Z"/></g>
<g><path style="opacity:1" fill="#fddbde" d="M 137.5,127.5 C 136.833,127.833 136.167,128.167 135.5,128.5C 135.665,125.482 135.498,122.482 135,119.5C 132.541,118.351 130.041,118.351 127.5,119.5C 127.5,119.167 127.5,118.833 127.5,118.5C 129.992,116.6 132.658,116.267 135.5,117.5C 137.301,120.535 137.968,123.869 137.5,127.5 Z"/></g>
<g><path style="opacity:1" fill="#b14345" d="M 53.5,119.5 C 53.8766,123.673 54.8766,127.673 56.5,131.5C 55.5041,131.586 54.6708,131.252 54,130.5C 52.3929,126.741 52.2262,123.074 53.5,119.5 Z"/></g>
<g><path style="opacity:1" fill="#c04142" d="M 111.5,123.5 C 111.719,124.675 111.386,125.675 110.5,126.5C 107.683,127.095 105.35,128.428 103.5,130.5C 100.673,131.663 98.0065,131.663 95.5,130.5C 94.5,129.833 93.5,129.167 92.5,128.5C 96.5817,128.656 100.582,128.156 104.5,127C 106.577,125.295 108.91,124.128 111.5,123.5 Z"/></g>
<g><path style="opacity:1" fill="#f5fbfa" d="M 63.5,119.5 C 63.3433,120.873 63.51,122.207 64,123.5C 65.5565,122.795 66.7232,123.461 67.5,125.5C 67.2907,126.086 66.9574,126.586 66.5,127C 69.3574,129.268 72.0241,131.768 74.5,134.5C 74.2907,135.086 73.9574,135.586 73.5,136C 70.1484,136.838 66.8151,137.671 63.5,138.5C 63.6495,137.448 63.4828,136.448 63,135.5C 59.5181,132.365 57.3514,128.532 56.5,124C 56.1607,120.672 57.6607,118.839 61,118.5C 61.3418,120.619 62.1751,120.953 63.5,119.5 Z"/></g>
<g><path style="opacity:1" fill="#da222d" d="M 111.5,123.5 C 114.09,123.918 116.423,124.918 118.5,126.5C 114.787,129.975 110.454,132.308 105.5,133.5C 100.098,134.827 94.7643,134.493 89.5,132.5C 91.3043,131.232 93.3043,130.565 95.5,130.5C 98.0065,131.663 100.673,131.663 103.5,130.5C 105.35,128.428 107.683,127.095 110.5,126.5C 111.386,125.675 111.719,124.675 111.5,123.5 Z"/></g>
<g><path style="opacity:1" fill="#f8d5d5" d="M 146.5,118.5 C 147.477,121.287 147.81,124.287 147.5,127.5C 147.015,134.644 143.682,139.978 137.5,143.5C 139.898,140.429 141.898,137.095 143.5,133.5C 144.906,133.027 145.573,132.027 145.5,130.5C 146.272,126.548 146.605,122.548 146.5,118.5 Z"/></g>
<g><path style="opacity:1" fill="#faf1f1" d="M 47.5,111.5 C 43.5221,118.263 43.5221,124.93 47.5,131.5C 49.4815,137.821 53.1482,142.821 58.5,146.5C 59.9108,148.914 61.9108,150.581 64.5,151.5C 69.0157,154.927 74.0157,157.593 79.5,159.5C 80.1667,159.5 80.8333,159.5 81.5,159.5C 82.6085,160.29 83.9419,160.79 85.5,161C 92.1583,161.5 98.825,161.666 105.5,161.5C 98.0608,163.726 90.3941,164.06 82.5,162.5C 81.5,162.833 80.5,163.167 79.5,163.5C 85.8376,164.308 92.1709,165.141 98.5,166C 97.1072,167.363 95.4405,168.196 93.5,168.5C 89.9814,168.504 86.4814,168.171 83,167.5C 80.9501,167.691 79.1168,168.358 77.5,169.5C 75.2667,167.235 73.1,164.901 71,162.5C 70.5172,161.552 70.3505,160.552 70.5,159.5C 68.8008,159.66 67.1341,159.494 65.5,159C 66.3402,157.334 65.8402,157.167 64,158.5C 63.8078,156.423 63.3078,154.423 62.5,152.5C 60.6969,151.863 59.3636,150.697 58.5,149C 57.2068,148.51 55.8734,148.343 54.5,148.5C 54.5,149.833 54.5,151.167 54.5,152.5C 56.1667,152.5 57.8333,152.5 59.5,152.5C 59.5,153.833 59.5,155.167 59.5,156.5C 57.8333,156.5 56.1667,156.5 54.5,156.5C 53.5494,154.38 52.0494,152.714 50,151.5C 49.5172,150.552 49.3505,149.552 49.5,148.5C 47.5168,148.843 46.1834,148.176 45.5,146.5C 47.0247,142.938 46.1914,139.938 43,137.5C 40.2003,139.118 38.7003,138.285 38.5,135C 38.6667,134.167 38.8333,133.333 39,132.5C 39.6152,134.116 40.6152,135.449 42,136.5C 42.8699,135.892 43.3699,135.059 43.5,134C 41.9432,126.32 42.2766,118.82 44.5,111.5C 45.5,111.5 46.5,111.5 47.5,111.5 Z"/></g>
<g><path style="opacity:1" fill="#de767c" d="M 137.5,127.5 C 137.545,130.077 136.545,132.077 134.5,133.5C 134.167,133.5 133.833,133.5 133.5,133.5C 134.167,131.833 134.833,130.167 135.5,128.5C 136.167,128.167 136.833,127.833 137.5,127.5 Z"/></g>
<g><path style="opacity:1" fill="#d0828d" d="M 145.5,130.5 C 145.573,132.027 144.906,133.027 143.5,133.5C 143.5,132.833 143.5,132.167 143.5,131.5C 144.167,131.167 144.833,130.833 145.5,130.5 Z"/></g>
<g><path style="opacity:1" fill="#fceded" d="M 63.5,119.5 C 67.5171,122.526 70.8504,126.192 73.5,130.5C 75.0712,132.415 77.0712,133.415 79.5,133.5C 79.5,134.167 79.8333,134.5 80.5,134.5C 83.5,135.833 86.5,137.167 89.5,138.5C 87.396,138.201 85.396,138.534 83.5,139.5C 81.9208,140.667 80.5875,142 79.5,143.5C 78.0047,143.585 77.0047,142.919 76.5,141.5C 78.234,139.766 80.234,138.432 82.5,137.5C 80.1667,136.167 77.8333,136.167 75.5,137.5C 74.1349,138.941 72.6349,140.274 71,141.5C 70.4209,142.928 70.5876,144.262 71.5,145.5C 68.8333,143.833 66.1667,142.167 63.5,140.5C 63.5,140.167 63.5,139.833 63.5,139.5C 63.5,139.167 63.5,138.833 63.5,138.5C 66.8151,137.671 70.1484,136.838 73.5,136C 73.9574,135.586 74.2907,135.086 74.5,134.5C 72.0241,131.768 69.3574,129.268 66.5,127C 66.9574,126.586 67.2907,126.086 67.5,125.5C 66.7232,123.461 65.5565,122.795 64,123.5C 63.51,122.207 63.3433,120.873 63.5,119.5 Z"/></g>
<g><path style="opacity:1" fill="#fde5e4" d="M 126.5,121.5 C 125.85,123.435 125.517,125.435 125.5,127.5C 124.5,127.5 123.5,127.5 122.5,127.5C 122.649,128.552 122.483,129.552 122,130.5C 118.498,131.83 115.664,133.997 113.5,137C 110.748,137.212 108.248,138.045 106,139.5C 100.101,142.104 94.601,141.771 89.5,138.5C 93.5138,138.666 97.5138,138.499 101.5,138C 104.599,137.613 107.266,136.446 109.5,134.5C 112.757,133.538 115.757,132.038 118.5,130C 121.058,127.039 123.725,124.205 126.5,121.5 Z"/></g>
<g><path style="opacity:1" fill="#be4145" d="M 56.5,131.5 C 58.6054,134.027 60.9387,136.36 63.5,138.5C 63.5,138.833 63.5,139.167 63.5,139.5C 61.8333,139.5 60.1667,139.5 58.5,139.5C 57.3608,136.996 56.6941,134.33 56.5,131.5 Z"/></g>
<g><path style="opacity:1" fill="#c0525a" d="M 80.5,134.5 C 88.4891,136.453 96.4891,136.787 104.5,135.5C 106.117,134.962 107.784,134.629 109.5,134.5C 107.266,136.446 104.599,137.613 101.5,138C 97.5138,138.499 93.5138,138.666 89.5,138.5C 86.5,137.167 83.5,135.833 80.5,134.5 Z"/></g>
<g><path style="opacity:1" fill="#b74046" d="M 47.5,131.5 C 49.0174,131.511 50.1841,132.177 51,133.5C 51.3104,137.641 53.4771,139.975 57.5,140.5C 57.3253,142.621 57.6586,144.621 58.5,146.5C 53.1482,142.821 49.4815,137.821 47.5,131.5 Z"/></g>
<g><path style="opacity:1" fill="#f7fbf9" d="M 135.5,128.5 C 134.833,130.167 134.167,131.833 133.5,133.5C 130.126,137.876 126.126,141.542 121.5,144.5C 118.234,144.629 115.234,145.629 112.5,147.5C 111.808,146.975 111.308,146.308 111,145.5C 104.115,146.964 97.2818,146.631 90.5,144.5C 91.0253,143.808 91.6919,143.308 92.5,143C 88.1649,142.737 83.8316,142.903 79.5,143.5C 80.5875,142 81.9208,140.667 83.5,139.5C 85.396,138.534 87.396,138.201 89.5,138.5C 94.601,141.771 100.101,142.104 106,139.5C 108.248,138.045 110.748,137.212 113.5,137C 115.664,133.997 118.498,131.83 122,130.5C 122.483,129.552 122.649,128.552 122.5,127.5C 123.5,127.5 124.5,127.5 125.5,127.5C 125.517,125.435 125.85,123.435 126.5,121.5C 126.833,120.833 127.167,120.167 127.5,119.5C 130.041,118.351 132.541,118.351 135,119.5C 135.498,122.482 135.665,125.482 135.5,128.5 Z"/></g>
<g><path style="opacity:1" fill="#97bbbd" d="M 26.5,144.5 C 25.4937,144.062 25.4937,143.396 26.5,142.5C 28.7567,142.038 30.7567,141.038 32.5,139.5C 32.8333,139.833 33.1667,140.167 33.5,140.5C 32.1574,142.839 30.824,145.172 29.5,147.5C 28.4104,146.609 28.4104,145.609 29.5,144.5C 28.5754,143.438 27.5754,143.438 26.5,144.5 Z"/></g>
<g><path style="opacity:1" fill="#fcf0f1" d="M 121.5,144.5 C 120.167,145.5 118.833,146.5 117.5,147.5C 115.033,147.755 113.033,148.755 111.5,150.5C 103.629,152.272 95.6289,152.938 87.5,152.5C 83.9993,151.2 80.3326,150.034 76.5,149C 74.4156,148.303 72.7489,147.136 71.5,145.5C 75.3246,144.789 78.3246,145.955 80.5,149C 84.1667,149.667 87.8333,149.667 91.5,149C 90.4495,147.615 89.1161,146.615 87.5,146C 84.3248,146.053 81.6581,145.22 79.5,143.5C 83.8316,142.903 88.1649,142.737 92.5,143C 91.6919,143.308 91.0253,143.808 90.5,144.5C 97.2818,146.631 104.115,146.964 111,145.5C 111.308,146.308 111.808,146.975 112.5,147.5C 115.234,145.629 118.234,144.629 121.5,144.5 Z"/></g>
<g><path style="opacity:1" fill="#8db3b3" d="M 30.5,150.5 C 30.5,150.167 30.5,149.833 30.5,149.5C 33.2791,148.383 33.6124,147.217 31.5,146C 33.3646,144.699 35.3646,144.365 37.5,145C 35.5834,147.423 33.2501,149.256 30.5,150.5 Z"/></g>
<g><path style="opacity:1" fill="#f6fcfb" d="M 79.5,143.5 C 81.6581,145.22 84.3248,146.053 87.5,146C 89.1161,146.615 90.4495,147.615 91.5,149C 87.8333,149.667 84.1667,149.667 80.5,149C 78.3246,145.955 75.3246,144.789 71.5,145.5C 70.5876,144.262 70.4209,142.928 71,141.5C 72.6349,140.274 74.1349,138.941 75.5,137.5C 77.8333,136.167 80.1667,136.167 82.5,137.5C 80.234,138.432 78.234,139.766 76.5,141.5C 77.0047,142.919 78.0047,143.585 79.5,143.5 Z"/></g>
<g><path style="opacity:1" fill="#c7343d" d="M 133.5,133.5 C 133.833,133.5 134.167,133.5 134.5,133.5C 134.334,136.168 133.334,138.502 131.5,140.5C 131.709,141.086 132.043,141.586 132.5,142C 130.5,142.667 128.5,143.333 126.5,144C 127.047,144.925 127.713,145.758 128.5,146.5C 130.991,144.942 133.657,143.942 136.5,143.5C 135.833,144.5 135.167,145.5 134.5,146.5C 132.251,147.08 130.585,148.413 129.5,150.5C 126.631,153.022 123.297,154.689 119.5,155.5C 121.922,153.739 123.588,151.406 124.5,148.5C 120.043,148.955 115.71,149.955 111.5,151.5C 111.5,151.167 111.5,150.833 111.5,150.5C 113.967,150.245 115.967,149.245 117.5,147.5C 118.833,146.5 120.167,145.5 121.5,144.5C 126.126,141.542 130.126,137.876 133.5,133.5 Z"/></g>
<g><path style="opacity:1" fill="#eda1a3" d="M 134.5,146.5 C 133.415,148.587 131.749,149.92 129.5,150.5C 130.585,148.413 132.251,147.08 134.5,146.5 Z"/></g>
<g><path style="opacity:1" fill="#d3777b" d="M 117.5,147.5 C 115.967,149.245 113.967,150.245 111.5,150.5C 113.033,148.755 115.033,147.755 117.5,147.5 Z"/></g>
<g><path style="opacity:1" fill="#f4f9f8" d="M 147.5,127.5 C 148.5,127.5 149.5,127.5 150.5,127.5C 150.511,129.547 150.844,131.547 151.5,133.5C 150.641,136.051 149.641,138.551 148.5,141C 149.385,143.157 151.052,143.99 153.5,143.5C 153.5,140.167 153.5,136.833 153.5,133.5C 155.916,133.961 157.75,135.294 159,137.5C 159.873,137.265 160.707,136.931 161.5,136.5C 162.77,137.562 163.937,138.562 165,139.5C 166.342,138.098 167.176,138.431 167.5,140.5C 166.963,141.741 166.296,142.908 165.5,144C 165.892,145.011 166.559,145.511 167.5,145.5C 167.081,146.672 166.415,147.672 165.5,148.5C 162.998,148.621 160.332,148.788 157.5,149C 158.973,149.71 159.64,150.876 159.5,152.5C 157.876,152.64 156.71,151.973 156,150.5C 155.517,151.448 155.351,152.448 155.5,153.5C 153.046,151.94 150.38,150.94 147.5,150.5C 147.343,151.873 147.51,153.207 148,154.5C 149.507,155.505 150.673,156.838 151.5,158.5C 152.429,157.311 152.762,155.978 152.5,154.5C 154.099,154.768 155.432,154.434 156.5,153.5C 157.914,155.044 158.247,156.711 157.5,158.5C 155.47,158.894 153.137,159.227 150.5,159.5C 150.196,162.522 149.696,165.522 149,168.5C 147.604,170.527 145.938,170.86 144,169.5C 142.354,171.055 142.021,172.721 143,174.5C 140.399,172.278 137.899,172.611 135.5,175.5C 132.701,174.719 130.034,174.386 127.5,174.5C 127.833,173.833 128.167,173.167 128.5,172.5C 129.117,172.611 129.617,172.944 130,173.5C 131.046,170.541 132.879,169.874 135.5,171.5C 137.754,170.876 139.421,169.543 140.5,167.5C 140.833,167.5 141.167,167.5 141.5,167.5C 142.648,168.895 143.648,168.728 144.5,167C 142.314,166.396 142.148,165.23 144,163.5C 145.436,168.342 146.936,168.509 148.5,164C 144.989,162.364 144.656,161.197 147.5,160.5C 144.833,159.833 142.167,159.167 139.5,158.5C 139.291,157.914 138.957,157.414 138.5,157C 136.527,156.505 134.527,156.338 132.5,156.5C 132.467,159.543 131.134,161.876 128.5,163.5C 125.616,164.816 122.616,165.816 119.5,166.5C 118.388,167.265 117.721,168.265 117.5,169.5C 116.833,169.5 116.167,169.5 115.5,169.5C 113.782,168.776 111.948,168.109 110,167.5C 106.333,168.833 102.667,168.833 99,167.5C 98.0754,168.047 97.2421,168.713 96.5,169.5C 97.8146,171.199 97.8146,172.865 96.5,174.5C 90.0679,171.289 87.7346,173.289 89.5,180.5C 89.2504,181.922 88.417,182.922 87,183.5C 86.3086,181.109 85.3086,181.109 84,183.5C 80.3625,182.122 78.8625,179.455 79.5,175.5C 78.5,175.5 77.5,175.5 76.5,175.5C 76.9926,177.806 77.3259,180.139 77.5,182.5C 75.6412,182.461 74.3079,183.294 73.5,185C 72.1667,185.667 70.8333,185.667 69.5,185C 68.2857,182.649 67.4523,180.149 67,177.5C 66.0053,176.934 65.172,176.267 64.5,175.5C 66.5542,175.365 68.2209,176.032 69.5,177.5C 69.9064,175.642 71.5731,174.309 74.5,173.5C 71.8228,171.736 72.1562,170.57 75.5,170C 74.9056,169.536 74.2389,169.369 73.5,169.5C 72.3063,166.982 71.1396,166.982 70,169.5C 69.7216,168.584 69.2216,167.918 68.5,167.5C 68.1667,167.5 67.8333,167.5 67.5,167.5C 65.0582,167.881 64.3915,167.214 65.5,165.5C 61.8943,162.785 58.2276,159.785 54.5,156.5C 56.1667,156.5 57.8333,156.5 59.5,156.5C 59.5,155.167 59.5,153.833 59.5,152.5C 57.8333,152.5 56.1667,152.5 54.5,152.5C 54.5,151.167 54.5,149.833 54.5,148.5C 55.8734,148.343 57.2068,148.51 58.5,149C 59.3636,150.697 60.6969,151.863 62.5,152.5C 63.3078,154.423 63.8078,156.423 64,158.5C 65.8402,157.167 66.3402,157.334 65.5,159C 67.1341,159.494 68.8008,159.66 70.5,159.5C 70.3505,160.552 70.5172,161.552 71,162.5C 73.1,164.901 75.2667,167.235 77.5,169.5C 79.1168,168.358 80.9501,167.691 83,167.5C 86.4814,168.171 89.9814,168.504 93.5,168.5C 95.4405,168.196 97.1072,167.363 98.5,166C 92.1709,165.141 85.8376,164.308 79.5,163.5C 80.5,163.167 81.5,162.833 82.5,162.5C 90.3941,164.06 98.0608,163.726 105.5,161.5C 105.5,161.167 105.5,160.833 105.5,160.5C 110.831,160.345 115.498,158.679 119.5,155.5C 123.297,154.689 126.631,153.022 129.5,150.5C 131.749,149.92 133.415,148.587 134.5,146.5C 135.167,145.5 135.833,144.5 136.5,143.5C 136.833,143.5 137.167,143.5 137.5,143.5C 143.682,139.978 147.015,134.644 147.5,127.5 Z"/></g>
<g><path style="opacity:1" fill="#9fbcb6" d="M 156.5,138.5 C 157.497,138.47 158.164,138.97 158.5,140C 156.727,142.856 157.394,144.689 160.5,145.5C 162.029,145.471 163.196,144.804 164,143.5C 162.422,148.376 159.755,148.709 156,144.5C 155.51,142.455 155.677,140.455 156.5,138.5 Z"/></g>
<g><path style="opacity:1" fill="#b34743" d="M 64.5,151.5 C 69.3203,152.904 73.987,154.904 78.5,157.5C 79.2975,157.957 79.6309,158.624 79.5,159.5C 74.0157,157.593 69.0157,154.927 64.5,151.5 Z"/></g>
<g><path style="opacity:1" fill="#ae5454" d="M 111.5,150.5 C 111.5,150.833 111.5,151.167 111.5,151.5C 109.095,152.768 106.428,153.435 103.5,153.5C 97.9738,153.821 92.6405,153.488 87.5,152.5C 95.6289,152.938 103.629,152.272 111.5,150.5 Z"/></g>
<g><path style="opacity:1" fill="#b7363d" d="M 63.5,140.5 C 66.1667,142.167 68.8333,143.833 71.5,145.5C 72.7489,147.136 74.4156,148.303 76.5,149C 80.3326,150.034 83.9993,151.2 87.5,152.5C 92.6405,153.488 97.9738,153.821 103.5,153.5C 100.686,154.165 97.6862,154.498 94.5,154.5C 87.8272,153.447 81.1605,152.28 74.5,151C 72.9435,148.386 70.6102,147.053 67.5,147C 66.704,144.398 65.3707,142.232 63.5,140.5 Z"/></g>
<g><path style="opacity:1" fill="#a4c7c8" d="M 155.5,153.5 C 155.833,153.5 156.167,153.5 156.5,153.5C 155.432,154.434 154.099,154.768 152.5,154.5C 152.762,155.978 152.429,157.311 151.5,158.5C 150.673,156.838 149.507,155.505 148,154.5C 147.51,153.207 147.343,151.873 147.5,150.5C 150.38,150.94 153.046,151.94 155.5,153.5 Z"/></g>
<g><path style="opacity:1" fill="#b9373a" d="M 119.5,155.5 C 115.498,158.679 110.831,160.345 105.5,160.5C 103.167,160.5 100.833,160.5 98.5,160.5C 105.242,158.214 112.242,156.548 119.5,155.5 Z"/></g>
<g><path style="opacity:1" fill="#b94654" d="M 81.5,159.5 C 87.1613,159.907 92.828,160.24 98.5,160.5C 100.833,160.5 103.167,160.5 105.5,160.5C 105.5,160.833 105.5,161.167 105.5,161.5C 98.825,161.666 92.1583,161.5 85.5,161C 83.9419,160.79 82.6085,160.29 81.5,159.5 Z"/></g>
<g><path style="opacity:1" fill="#e8f8f8" d="M 45.5,146.5 C 46.1834,148.176 47.5168,148.843 49.5,148.5C 49.3505,149.552 49.5172,150.552 50,151.5C 52.0494,152.714 53.5494,154.38 54.5,156.5C 58.2276,159.785 61.8943,162.785 65.5,165.5C 64.3915,167.214 65.0582,167.881 67.5,167.5C 63.3305,175.597 61.8305,174.93 63,165.5C 61.0924,168.206 60.259,171.206 60.5,174.5C 65.6383,175.03 68.305,172.697 68.5,167.5C 69.2216,167.918 69.7216,168.584 70,169.5C 71.1396,166.982 72.3063,166.982 73.5,169.5C 72.5041,169.414 71.6708,169.748 71,170.5C 70.023,172.74 69.523,175.073 69.5,177.5C 68.2209,176.032 66.5542,175.365 64.5,175.5C 61.3354,176.036 58.6688,175.203 56.5,173C 53.6473,171.57 50.6473,170.737 47.5,170.5C 47.269,166.915 48.269,163.748 50.5,161C 50.928,158.975 50.2613,157.142 48.5,155.5C 47.0813,154.549 45.4147,154.216 43.5,154.5C 43.3573,156.262 43.6906,157.929 44.5,159.5C 43.2839,160.096 41.9506,160.263 40.5,160C 42.1929,162.952 44.0262,163.118 46,160.5C 46.4922,159.451 46.3256,158.451 45.5,157.5C 45.9569,156.702 46.6236,156.369 47.5,156.5C 48.2051,162.607 45.7051,165.607 40,165.5C 39.3333,164.833 38.6667,164.167 38,163.5C 37.2131,164.711 36.5464,165.711 36,166.5C 35.5,166.167 35,165.833 34.5,165.5C 37.7866,160.667 36.7866,158.501 31.5,159C 33.5127,157.209 33.5127,155.875 31.5,155C 32.5814,153.289 32.248,151.789 30.5,150.5C 33.2501,149.256 35.5834,147.423 37.5,145C 35.3646,144.365 33.3646,144.699 31.5,146C 33.6124,147.217 33.2791,148.383 30.5,149.5C 28.8415,148.819 27.1749,147.985 25.5,147C 27.6192,146.658 27.9526,145.825 26.5,144.5C 27.5754,143.438 28.5754,143.438 29.5,144.5C 28.4104,145.609 28.4104,146.609 29.5,147.5C 30.824,145.172 32.1574,142.839 33.5,140.5C 33.1667,140.167 32.8333,139.833 32.5,139.5C 30.7567,141.038 28.7567,142.038 26.5,142.5C 26.3601,140.876 27.0267,139.71 28.5,139C 26.6992,138.683 26.3659,138.016 27.5,137C 30.9023,136.014 34.2356,135.847 37.5,136.5C 37.5,138.833 37.5,141.167 37.5,143.5C 39.8568,143.337 42.1902,143.503 44.5,144C 43.1175,145.461 43.4508,146.294 45.5,146.5 Z"/></g>
<g><path style="opacity:1" fill="#98b1b3" d="M 53.5,161.5 C 56.8638,160.789 59.1971,161.956 60.5,165C 58.9938,167.333 57.3271,169.5 55.5,171.5C 51.1052,168.86 50.4385,165.526 53.5,161.5 Z"/></g>
<g><path style="opacity:1" fill="#9db8ba" d="M 48.5,155.5 C 48.5,156.167 48.1667,156.5 47.5,156.5C 46.6236,156.369 45.9569,156.702 45.5,157.5C 46.3256,158.451 46.4922,159.451 46,160.5C 44.0262,163.118 42.1929,162.952 40.5,160C 41.9506,160.263 43.2839,160.096 44.5,159.5C 43.6906,157.929 43.3573,156.262 43.5,154.5C 45.4147,154.216 47.0813,154.549 48.5,155.5 Z"/></g>
<g><path style="opacity:1" fill="#91b3b0" d="M 40.5,148.5 C 41.8734,148.343 43.2068,148.51 44.5,149C 42.1404,151.542 40.1404,154.376 38.5,157.5C 38.4455,156.47 38.1122,155.303 37.5,154C 36.1667,153.667 34.8333,153.333 33.5,153C 36.2387,151.974 38.572,150.474 40.5,148.5 Z"/></g>
<g><path style="opacity:1" fill="#dbf7f9" d="M 55.5,162.5 C 59.4757,164.498 59.309,166.498 55,168.5C 53.7202,168.387 52.8869,167.72 52.5,166.5C 53.1716,164.84 54.1716,163.507 55.5,162.5 Z"/></g>
<g><path style="opacity:1" fill="#e9f9f9" d="M 141.5,167.5 C 141.5,166.167 141.5,164.833 141.5,163.5C 139.712,163.785 138.045,163.452 136.5,162.5C 137.167,161.833 137.833,161.167 138.5,160.5C 137.726,159.289 136.893,159.289 136,160.5C 135.51,161.793 135.343,163.127 135.5,164.5C 137.167,164.5 138.833,164.5 140.5,164.5C 140.5,165.5 140.5,166.5 140.5,167.5C 139.421,169.543 137.754,170.876 135.5,171.5C 130.876,162.291 128.542,162.624 128.5,172.5C 128.167,173.167 127.833,173.833 127.5,174.5C 127.5,176.833 127.5,179.167 127.5,181.5C 125.43,181.551 123.597,180.885 122,179.5C 120,180.833 118,182.167 116,183.5C 112.483,182.242 108.983,182.242 105.5,183.5C 104.148,182.476 102.815,181.476 101.5,180.5C 101.343,179.127 101.51,177.793 102,176.5C 102.941,178.061 104.108,179.395 105.5,180.5C 106.767,177.761 106.601,175.094 105,172.5C 104.667,173.833 104.333,175.167 104,176.5C 103.059,174.939 101.892,173.605 100.5,172.5C 99.7508,175.527 99.0841,178.527 98.5,181.5C 97.0357,182.405 95.7024,182.405 94.5,181.5C 96.1675,179.521 96.8342,177.188 96.5,174.5C 97.8146,172.865 97.8146,171.199 96.5,169.5C 97.2421,168.713 98.0754,168.047 99,167.5C 102.667,168.833 106.333,168.833 110,167.5C 111.948,168.109 113.782,168.776 115.5,169.5C 113.167,170.167 110.833,170.833 108.5,171.5C 108.833,174.167 109.167,176.833 109.5,179.5C 109.56,180.043 109.893,180.376 110.5,180.5C 112.225,179.985 113.892,179.318 115.5,178.5C 114.121,177.137 114.287,176.137 116,175.5C 117.221,176.272 118.221,177.272 119,178.5C 118.842,175.498 118.342,172.498 117.5,169.5C 117.721,168.265 118.388,167.265 119.5,166.5C 122.616,165.816 125.616,164.816 128.5,163.5C 131.134,161.876 132.467,159.543 132.5,156.5C 134.527,156.338 136.527,156.505 138.5,157C 138.957,157.414 139.291,157.914 139.5,158.5C 142.167,159.167 144.833,159.833 147.5,160.5C 144.656,161.197 144.989,162.364 148.5,164C 146.936,168.509 145.436,168.342 144,163.5C 142.148,165.23 142.314,166.396 144.5,167C 143.648,168.728 142.648,168.895 141.5,167.5 Z"/></g>
<g><path style="opacity:1" fill="#88a09f" d="M 141.5,167.5 C 141.167,167.5 140.833,167.5 140.5,167.5C 140.5,166.5 140.5,165.5 140.5,164.5C 138.833,164.5 137.167,164.5 135.5,164.5C 135.343,163.127 135.51,161.793 136,160.5C 136.893,159.289 137.726,159.289 138.5,160.5C 137.833,161.167 137.167,161.833 136.5,162.5C 138.045,163.452 139.712,163.785 141.5,163.5C 141.5,164.833 141.5,166.167 141.5,167.5 Z"/></g>
<g><path style="opacity:1" fill="#b5ccd2" d="M 121.5,167.5 C 126.808,168.266 128.308,170.932 126,175.5C 124.951,176.517 123.784,176.684 122.5,176C 123.91,175.632 124.91,174.799 125.5,173.5C 123.955,172.548 122.288,172.215 120.5,172.5C 120.366,170.708 120.699,169.042 121.5,167.5 Z"/></g>
<g><path style="opacity:1" fill="#a4c2c6" d="M 135.5,171.5 C 132.879,169.874 131.046,170.541 130,173.5C 129.617,172.944 129.117,172.611 128.5,172.5C 128.542,162.624 130.876,162.291 135.5,171.5 Z"/></g>
<g><path style="opacity:1" fill="#9fbab7" d="M 67.5,167.5 C 67.8333,167.5 68.1667,167.5 68.5,167.5C 68.305,172.697 65.6383,175.03 60.5,174.5C 60.259,171.206 61.0924,168.206 63,165.5C 61.8305,174.93 63.3305,175.597 67.5,167.5 Z"/></g>
<g><path style="opacity:1" fill="#c4e0e1" d="M 115.5,169.5 C 116.167,169.5 116.833,169.5 117.5,169.5C 118.342,172.498 118.842,175.498 119,178.5C 118.221,177.272 117.221,176.272 116,175.5C 114.287,176.137 114.121,177.137 115.5,178.5C 113.892,179.318 112.225,179.985 110.5,180.5C 109.893,180.376 109.56,180.043 109.5,179.5C 110.404,178.791 110.737,177.791 110.5,176.5C 111.5,176.5 112.5,176.5 113.5,176.5C 113.66,174.801 113.494,173.134 113,171.5C 112.517,172.448 112.351,173.448 112.5,174.5C 111.5,174.5 110.5,174.5 109.5,174.5C 109.737,173.209 109.404,172.209 108.5,171.5C 110.833,170.833 113.167,170.167 115.5,169.5 Z"/></g>
<g><path style="opacity:1" fill="#81aaad" d="M 108.5,171.5 C 109.404,172.209 109.737,173.209 109.5,174.5C 110.5,174.5 111.5,174.5 112.5,174.5C 112.351,173.448 112.517,172.448 113,171.5C 113.494,173.134 113.66,174.801 113.5,176.5C 112.5,176.5 111.5,176.5 110.5,176.5C 110.737,177.791 110.404,178.791 109.5,179.5C 109.167,176.833 108.833,174.167 108.5,171.5 Z"/></g>
<g><path style="opacity:1" fill="#90a7ad" d="M 73.5,169.5 C 74.2389,169.369 74.9056,169.536 75.5,170C 72.1562,170.57 71.8228,171.736 74.5,173.5C 71.5731,174.309 69.9064,175.642 69.5,177.5C 69.523,175.073 70.023,172.74 71,170.5C 71.6708,169.748 72.5041,169.414 73.5,169.5 Z"/></g>
<g><path style="opacity:1" fill="#a0b6b8" d="M 82.5,171.5 C 83.9778,171.238 85.3112,171.571 86.5,172.5C 85.6034,172.669 84.6034,173.002 83.5,173.5C 88.1101,178.705 87.1101,180.705 80.5,179.5C 81.8333,178.833 83.1667,178.167 84.5,177.5C 83.5,176.167 82.5,174.833 81.5,173.5C 81.8627,172.817 82.1961,172.15 82.5,171.5 Z"/></g>
<g><path style="opacity:1" fill="#91afb2" d="M 96.5,174.5 C 96.8342,177.188 96.1675,179.521 94.5,181.5C 92.7085,181.634 91.0418,181.301 89.5,180.5C 87.7346,173.289 90.0679,171.289 96.5,174.5 Z"/></g>
<g><path style="opacity:1" fill="#d8f6f7" d="M 91.5,174.5 C 96.394,175.54 96.7274,177.54 92.5,180.5C 90.261,178.867 89.9277,176.867 91.5,174.5 Z"/></g>
<g><path style="opacity:1" fill="#aac5c7" d="M 101.5,180.5 C 100.828,181.267 99.9947,181.934 99,182.5C 98.6012,182.272 98.4346,181.938 98.5,181.5C 99.0841,178.527 99.7508,175.527 100.5,172.5C 101.892,173.605 103.059,174.939 104,176.5C 104.333,175.167 104.667,173.833 105,172.5C 106.601,175.094 106.767,177.761 105.5,180.5C 104.108,179.395 102.941,178.061 102,176.5C 101.51,177.793 101.343,179.127 101.5,180.5 Z"/></g>
<g><path style="opacity:1" fill="#3b3128" d="M 227.5,191.5 C 227.5,192.167 227.5,192.833 227.5,193.5C 226.833,193.5 226.167,193.5 225.5,193.5C 225.833,192.5 226.5,191.833 227.5,191.5 Z"/></g>
</svg>
